<svg version="1.2" xmlns="http://www.w3.org/2000/svg" viewBox="0 0 2240 2010" width="2240" height="2010">
	<title>6056251_57699-ai</title>
	<style>
		.s0 { fill: #9eacd4 } 
		.s1 { fill: #fffdf1 } 
		.s2 { fill: none;stroke: #fefefe;stroke-miterlimit:10;stroke-width: 13 } 
		.s3 { fill: none;stroke: #fefefe;stroke-miterlimit:10;stroke-width: 17 } 
		.s4 { fill: none;stroke: #fefefe;stroke-miterlimit:10;stroke-width: 14.6 } 
		.s5 { fill: none;stroke: #fefefe;stroke-miterlimit:10;stroke-width: 16.2 } 
		.s6 { fill: none;stroke: #fefefe;stroke-miterlimit:10;stroke-width: 14.1 } 
		.s7 { opacity: .6;fill: #fffdf1 } 
	</style>
	<g id="_Artboards_">
	</g>
	<g id="Capa 1">
		<g id="&lt;Group&gt;">
			<g id="&lt;Group&gt;">
				<g id="&lt;Group&gt;">
					<path id="&lt;Path&gt;" class="s0" d="m2239.8 2009.1h-2239.8v-2009.1h2239.8z"/>
				</g>
				<g id="&lt;Group&gt;">
					<g id="&lt;Group&gt;" style="opacity: .6">
						<path id="&lt;Path&gt;" class="s1" d="m2239.8 1343.8c-65.9 15.2-128.4 39.5-184 68.4-119.7 62.2-182.7 136.9-311.6 177-193.8 60.3-280.1 59.2-459.4 30.8-322.3-51.1-477-117.3-782.8-200.8-199.6-54.5-340.8-54.5-501.8 34.7v555.2h2239.6z"/>
					</g>
					<g id="&lt;Group&gt;">
						<path id="&lt;Path&gt;" class="s2" d="m1272.7 708h101"/>
						<path id="&lt;Path&gt;" class="s3" d="m351.3 150.9h172"/>
						<g id="&lt;Group&gt;">
							<path id="&lt;Path&gt;" class="s4" d="m1622.1 503.8h35.1"/>
							<path id="&lt;Path&gt;" class="s4" d="m1672.4 503.8h35.2"/>
							<path id="&lt;Path&gt;" class="s4" d="m1722.7 503.8h35.2"/>
						</g>
						<path id="&lt;Path&gt;" class="s5" d="m738.8 432.7c0 12.2-9.8 22.1-22 22.1-12.2 0-22.1-9.9-22.1-22.1 0-12.2 9.9-22 22.1-22 12.2 0 22 9.8 22 22z"/>
						<path id="&lt;Path&gt;" class="s6" d="m1263.5 225.2c0 10.6-8.6 19.2-19.2 19.2-10.6 0-19.2-8.6-19.2-19.2 0-10.6 8.6-19.2 19.2-19.2 10.6 0 19.2 8.6 19.2 19.2z"/>
					</g>
					<path id="&lt;Path&gt;" class="s7" d="m2092.3 324.3c5.4-8.4 8.5-18.3 8.5-29 0-29.4-23.9-53.4-53.4-53.4-11.8 0-22.8 4-31.6 10.5 0-1.2 0.1-2.4 0.1-3.7 0-29.4-23.9-53.4-53.4-53.4-8.6 0-16.8 2.2-24.1 5.8-9.3-29.1-36.5-50.2-68.8-50.2-39.8 0-72.2 32.3-72.2 72.2 0 7.8 1.3 15.3 3.5 22.3-5.8-2.2-12-3.5-18.6-3.5-29.5 0-53.4 24-53.4 53.4 0 10.7 3.2 20.6 8.6 29z"/>
					<path id="&lt;Path&gt;" class="s7" d="m437 432.7c4.1-6.3 6.5-13.8 6.5-21.9 0-22.4-18.1-40.6-40.5-40.6-9 0-17.3 3-24.1 8 0.1-0.9 0.2-1.8 0.2-2.8 0-22.4-18.2-40.5-40.6-40.5-6.5 0-12.8 1.6-18.3 4.4-7-22.1-27.7-38.1-52.2-38.1-30.2 0-54.8 24.5-54.8 54.8 0 5.9 1 11.5 2.7 16.8-4.4-1.6-9.2-2.6-14.1-2.6-22.4 0-40.6 18.2-40.6 40.6 0 8.1 2.4 15.6 6.5 21.9z"/>
					<g id="&lt;Group&gt;" style="opacity: .6">
						<path id="&lt;Path&gt;" class="s1" d="m1259.7 1698.3h-15.4v-392.9h15.4z"/>
						<path id="&lt;Path&gt;" class="s1" d="m1366.2 1140.4c3.4-6.8 5.4-14.3 5.4-22.4 0-27.4-22.2-49.5-49.6-49.5-1.1 0-2.2 0.1-3.4 0.2 6.1-8.3 9.8-18.4 9.8-29.4 0-27.4-22.2-49.6-49.6-49.6-9.9 0-19.1 3-26.8 8-7.7-5-16.9-8-26.8-8-27.4 0-49.5 22.2-49.5 49.6 0 11 3.6 21.1 9.7 29.4-1.2-0.1-2.3-0.2-3.4-0.2-27.4 0-49.6 22.1-49.6 49.5 0 8.1 2 15.6 5.4 22.4-27 8.6-46.6 33.9-46.6 63.7 0 37 30 67 67 67 7.2 0 14.1-1.1 20.6-3.3-2 5.4-3.1 11.3-3.1 17.3 0 27.4 22.1 49.6 49.5 49.6 9.9 0 19.1-3 26.8-8 7.7 5 16.9 8 26.8 8 27.4 0 49.6-22.2 49.6-49.6 0-6-1.2-11.9-3.2-17.3 6.5 2.2 13.4 3.3 20.6 3.3 37 0 67-30 67-67 0-29.8-19.6-55.1-46.6-63.7z"/>
					</g>
				</g>
			</g>
			<g id="&lt;Group&gt;">
				<path id="&lt;Path&gt;" class="s0" d="m736.3 1773.1c0 55.1-100.5 99.9-224.5 99.9-124.1 0-224.6-44.8-224.6-99.9 0-55.2 100.5-100 224.6-100 124 0 224.5 44.8 224.5 100z"/>
			</g>
			<g id="&lt;Group&gt;">
				<path id="&lt;Path&gt;" class="s0" d="m1538.2 1798.2c0 55.1-100.5 99.9-224.5 99.9-124 0-224.6-44.8-224.6-99.9 0-55.2 100.6-99.9 224.6-99.9 124 0 224.5 44.7 224.5 99.9z"/>
			</g>
			<g id="&lt;Group&gt;">
				<path id="&lt;Path&gt;" class="s0" d="m2017.2 1810.5c0 55.2-100.5 99.9-224.6 99.9-124 0-224.5-44.7-224.5-99.9 0-55.2 100.5-99.9 224.5-99.9 124.1 0 224.6 44.7 224.6 99.9z"/>
			</g>
		</g>
	</g>
</svg>