<svg version="1.2" xmlns="http://www.w3.org/2000/svg" viewBox="0 0 2240 2010" width="2240" height="2010">
	<title>6056251_57699-ai</title>
	<style>
		.s0 { fill: #037ea2 } 
		.s1 { fill: #689ed4 } 
		.s2 { fill: #1b6daa } 
		.s3 { fill: #427ec0 } 
		.s4 { fill: #3a88c8 } 
		.s5 { fill: #15171b } 
		.s6 { fill: #07070b } 
		.s7 { fill: #2a8caf } 
		.s8 { fill: #f6a482 } 
		.s9 { fill: #131e34 } 
		.s10 { fill: #e69375 } 
		.s11 { fill: #54bd8a } 
		.s12 { fill: #f7a07c } 
		.s13 { fill: #5e2400 } 
		.s14 { fill: #ea8c70 } 
		.s15 { fill: #f7b68e } 
	</style>
	<g id="Capa 1">
		<g id="&lt;Group&gt;">
			<g id="&lt;Group&gt;">
				<path id="&lt;Path&gt;" class="s0" d="m501.6 1418.1c19.9-92.9 25.8-308.1 25.8-308.1 0 0-15.9-21.2-73.3-24.9-57.6-3.7-53.6 31.7-53.3 27.1 0 0 0 152.3 26.4 302.2 0 0 40.9 28.3 74.4 3.7z"/>
				<path id="&lt;Path&gt;" class="s0" d="m401.4 1122.7c-5.7-38.4 6-77.2 12.1-116.1h174.8c11.2 37.3 22.8 75.6 22.8 75.6 0 0 7.5 88.1-67.4 98.7 0 0-130.5 22.6-142.3-58.2z"/>
				<g id="&lt;Group&gt;">
					<g id="&lt;Group&gt;">
						<path id="&lt;Path&gt;" class="s1" d="m573.3 584.1v242.2c0 7.8 5.3 9.3 5.3 9.3l210.5 88.1c9.4 1.6 8.4-7.4 8.4-7.4v-240c0-8.8-5.8-10.1-5.8-10.1l-209.7-87.8c0 0-8.7-3.6-8.7 5.7z"/>
					</g>
					<g id="&lt;Group&gt;">
						<path id="&lt;Path&gt;" class="s2" d="m833.6 897.5l-39.8 25.9c3.4-1.1 3.6-5.5 3.6-5.5l0.1-241.2 37.4-24.5v242c0 0 0.3 2.2-1.3 3.3z"/>
					</g>
					<g id="&lt;Group&gt;">
						<path id="&lt;Path&gt;" class="s3" d="m606.5 555.4c-13.1 8.9-18.5 12.5-22.6 15.3l-7.8 5.3c0 0-2.8 1.5-2.5 5.8 0 0 0.8-5.9 8.3-3.4l211.5 88.7c0 0 4.1 2.1 4.1 9.6l37.4-24.3c0-7.9-5.5-10.4-5.5-10.4l-209.9-88c0 0-6.2-3.2-13 1.4z"/>
					</g>
					<g id="&lt;Group&gt;">
						<path id="&lt;Path&gt;" class="s4" d="m829.9 642.3c0 0 4.8 1.7 4.8 9.3l-37.2 25.1c0-7.5-4.1-9.6-4.1-9.6z"/>
					</g>
				</g>
				<g id="&lt;Group&gt;">
					<g id="&lt;Group&gt;">
						<path id="&lt;Path&gt;" class="s5" d="m601.4 1799.7l-10-0.5c-3.4-0.6-3.3 4.8-3.8 5-10.4 4.1-19.7 7.3-23.6 7.4 0 0-18.4-2.4-20.4-7.9l2.6-34.2c20.5-1.8 42-5.7 42-5.7l45.1-6.4c21.7-2.2 25.7 5.6 25.7 5.6 0 0 13.3 19.9-57.6 36.7z"/>
					</g>
					<g id="&lt;Group&gt;">
						<path id="&lt;Path&gt;" class="s6" d="m574 1797.7c3.3-1.5 8.2-3.2 11.7-3.8 22.2-3.9 44-6.1 62.5-20.4 4.6-3.5 7.8-7.8 8.1-13 2 1.3 2.7 2.5 2.7 2.5 0 0 13.3 19.9-57.6 36.7l-10-0.5c-3.4-0.6-3.3 4.8-3.8 5-10.4 4.1-19.7 7.3-23.6 7.4 0 0-18.4-2.4-20.4-7.9l0.6-8.4c7.4 4.2 20.3 6.8 29.8 2.4z"/>
					</g>
				</g>
				<g id="&lt;Group&gt;">
					<g id="&lt;Group&gt;">
						<path id="&lt;Path&gt;" class="s5" d="m474.2 1780.4l-9.9-0.6c-3.4-0.5-3.4 4.8-3.8 5-10.5 4.1-19.7 7.3-23.6 7.5 0 0-18.5-2.4-20.4-8l2.6-34.2c20.5-1.7 41.9-5.7 41.9-5.7l45.2-6.3c21.7-2.3 25.6 5.6 25.6 5.6 0 0 13.3 19.8-57.6 36.7z"/>
					</g>
					<g id="&lt;Group&gt;">
						<path id="&lt;Path&gt;" class="s6" d="m446.8 1778.4c3.4-1.5 8.2-3.2 11.7-3.8 22.3-3.9 44.1-6.1 62.6-20.4 4.5-3.5 7.7-7.9 8-13.1 2.1 1.4 2.7 2.6 2.7 2.6 0 0 13.3 19.8-57.6 36.7l-9.9-0.6c-3.4-0.5-3.4 4.8-3.8 5-10.5 4.1-19.7 7.3-23.6 7.5 0 0-18.5-2.4-20.4-8l0.6-8.3c7.3 4.2 20.3 6.8 29.7 2.4z"/>
					</g>
				</g>
				<path id="&lt;Path&gt;" class="s0" d="m470.4 1752.6c7.4-8.8 31.7-332.9 31.7-332.9 4-49.9-78.9-29-78.9-29-12 49.7-10.1 59-13.9 120.6-1.5 24.3 2.4 225.6 1.5 241.1 0 0 38.5 25.5 59.6 0.2z"/>
				<path id="&lt;Path&gt;" class="s7" d="m534 1051.7c0 0 49.7 84.7 19.1 140.1-30.6 55.3-159.6-4.9-151.7-69.1 8.7-70.3 72.4-100.7 132.6-71z"/>
				<path id="&lt;Path&gt;" class="s8" d="m569.7 943.7c8.1 28.7 41.4 138.5 41.4 138.5-91.4 86.1-209.3 17.8-210.4 4.8-1.5-15.6 15.9-75.1 19.1-139.3 0 0 32.5-50.1 149.9-4z"/>
				<path id="&lt;Path&gt;" class="s9" d=""/>
				<path id="&lt;Path&gt;" class="s7" d="m679.6 1402c-9.7-94.5-77.1-335.7-77.1-335.7 0 0-19.6-18.1-75.4-3.9-55.9 14.2-61.9 86.9-63.1 82.4 0 0 64.9 152.7 151.2 287.2 0 0 41.7 21.3 64.4-30z"/>
				<path id="&lt;Path&gt;" class="s7" d="m601.9 1765.8c3.6-10.9 77.3-352 77.3-352 0.6-46.2-69.7-31.8-69.7-31.8-13.2 27.3-28.6 60.5-36.8 121.6-3.2 24.2-24.7 251.4-26.7 266.7 0 0 37.6 14 55.9-4.5z"/>
				<g id="&lt;Group&gt;">
					<path id="&lt;Path&gt;" class="s10" d="m354 724.2c0 0-9.1 152.1-3.3 213.5 0 0 0 27.9 49.2 41.9 0 0 17.8-169.4 32.4-245 0 0-29-56.1-78.3-10.4z"/>
					<path id="&lt;Path&gt;" class="s10" d="m408.9 763.5c-20.2 8.5-43.5-0.8-52.1-20.8-8.6-20 0.8-43.1 20.9-51.6 20.2-8.6 43.5 0.7 52.1 20.7 8.6 20-0.8 43.1-20.9 51.7z"/>
				</g>
				<path id="&lt;Path&gt;" class="s11" d="m388.2 681.1c0 0-35.9 8.3-37.8 50l-5.8 149.9c0 0 35.9 23.9 82.4 19.8 0 0 53.6-200.2-38.8-219.7z"/>
				<path id="&lt;Path&gt;" class="s8" d=""/>
				<path id="&lt;Path&gt;" class="s8" d="m523.9 585.9c0 0 0.3 53.6 5 106.9l-70.6-11.7c0 0 10.3-24.4-4.3-46.1z"/>
				<path id="&lt;Path&gt;" class="s8" d="m388.2 681.1c-17.7 13-19.7 44-13.4 63.3 7.3 22.3 10.2 50.7 17.4 82.8 9.9 43.6 16.6 77.2 27.6 120.5 9.1 35.8 153 6.9 153 6.9l51.5-176.2c0 0 8.9-46-32.8-61.3 0 0-43.9-23.7-76-34.5-28.4-9.7-38.7-10.6-67.8-8.8 0 0-39 1.5-59.5 7.3z"/>
				<path id="&lt;Path&gt;" class="s7" d="m599 1047.3c0 0 30.6 49.4 0 104.7-30.6 55.4-124.1 35.2-124.3-36.5-0.3-70.9 64.2-98 124.3-68.2z"/>
				<path id="&lt;Path&gt;" class="s11" d="m447.7 673.8c0 0-39 1.5-59.5 7.3-18.4 13.5-18.1 40-14.5 60 6.8 38.4 13.7 77.1 17.2 115.9 1.6 17.2 5.9 52.1 7.2 69.3 1.2 16.7 6.5 25.9 23.6 34.7 13 6.8 22.6 1.4 36.8 1.8 35.9 1 71.4-2.9 107.1-7.3 1.5-0.2 24-1.8 24.3-3.5l34.4-173.6c0 0 8.9-46-32.8-61.3 0 0-29.3-18.3-61.4-29.2 0 0-55.9 1.4-82.4-14.1z"/>
				<g id="&lt;Group&gt;">
					<path id="&lt;Path&gt;" class="s12" d="m547.7 647.8l3-11.7c0 0 7.1-42.9 7.1-42.9 0.9-5.3 0.2-12.4-1.3-17.6-1.7-5.7-3-11.8-2.2-18.1 4.1-30.7-13.1-46-13.1-46-20-26.3-61.7-22.6-61.7-22.6-21.6 3.3-40.4 12.2-51.2 31.9-9.7 17.8-15 39.6-9.3 59.6 6.4 21.9 18.6 38.9 34.8 54.4 10.4 10 21 11.2 34.6 16.2 9.5 3.4 27.6 5.4 37.6 5.5 5.3 0 19.9-2.1 21.7-8.7z"/>
				</g>
				<path id="&lt;Path&gt;" class="s13" d="m539.4 529.3l-6.6 26.6c-7.6 3.4-10.6 6.3-9.6 16.2l2.4 22-5.9 2.3c0.4-8.8-11.8-8.9-11.8-8.9-8.9-0.5-10.4 7.1-9.9 14.4 1.3 19.1-5.6 49.3-21.6 54.6-6.3 2.1-18.1 4.3-20.1-4.3-2.5-10.4-22.2-31.1-22.2-31.1-23.8-23-29.7-62.2-18.5-92.2 3.4-9.1 10.1-18.6 17-25.2 14.9-14.2 33.5-21.1 53.1-23.7 0 0 27.1-3.3 42.3 7.4 9.5 6.6 15.6 12.7 19.7 18 0 0 5.7 12.2-8.3 23.9z"/>
				<path id="&lt;Path&gt;" class="s13" d="m558.2 488.7c-1-6.3-9.9-15.3-14.1-18.9-6.3-5.2-14.2 0.9-18.9 5.3-3.8 3.6-7 3.5-11.8 0.9-4.5-2.4-8.2-6.8-13.2-8.8-4.7-1.8-10-0.9-14.9-0.1-9.9 1.5-16.6 11.8-26.4 13.7-6.3 1.3-7.2 1.8-10.4 6.8-2.5 3.9-14.8-1.2-18.2 2.7-5 5.9-22.4 13.3-20.2 21.2-16.8 22 0.3 47.6 3.4 49.8 29.2 20.4 74-4.6 103.1-19 7.7-3.8 15-8.6 22-13.6 3.5-2.5 7.2-4.9 10.5-7.8 5.9-5.4 10.7-23.1 9.1-32.2z"/>
				<g id="&lt;Group&gt;">
					<g id="&lt;Group&gt;">
						<g id="&lt;Group&gt;">
							<g id="&lt;Group&gt;">
								<g id="&lt;Group&gt;">
									<path id="&lt;Path&gt;" class="s12" d="m517.6 615.1c-1.7 1.5-4 2.5-6.9 2.6-7.9 0.4-14.9-6.6-15.7-15.6-0.8-8.9 5-16.5 12.9-16.9 3.8-0.2 7.3 1.3 10.1 3.8 4 3.8 4.6 11.1 4.1 16.2-0.5 4.1-1.9 7.6-4.5 9.9z"/>
								</g>
							</g>
						</g>
					</g>
				</g>
				<g id="&lt;Group&gt;">
					<g id="&lt;Group&gt;">
						<g id="&lt;Group&gt;">
							<path id="&lt;Path&gt;" class="s14" d="m511.6 593.4c-0.7-4.7-10 0.4-8.4 3 1 1.4 2.7 2.4 4.1 3.4 1.9 1.4 2.9 2.7 3.3 5 0 0.3 0.1 1.1-0.1 1.3-1.2 0.9-5.6-3.4-6.5-4.3-1.9-1.8-2.3-5.1-1.7-7.5 0.8-2.6 2.4-3.9 5.1-3.9 2.1 0 4.3 0 4.4 2.7 0 0.1-0.1 0.5-0.2 0.3z"/>
						</g>
					</g>
					<g id="&lt;Group&gt;">
						<g id="&lt;Group&gt;">
							<path id="&lt;Path&gt;" class="s14" d="m508.9 598.5c0.9-1.1 1.9-0.3 3 0.3 1 0.7 1.6 1.6 1.9 2.7 0.7 2.4 0.6 5.7-0.7 8-1 1.8-2.9 2.9-5 3-2.8 0.1-3.9-2.4-4.1-4.8-0.1-0.6-0.2-2.2 0.4-2.6 0.6-0.5 1.2 0.5 1.7 1 0.7 0.5 1.6 0.7 2.5 0.7 1.6 0.1 3.2-0.9 4.1-2.2q0.3-0.3 0.4-0.7 0.2 2.4-0.2 1.1-0.2-0.6-0.6-1.1c-0.7-1.1-1.9-1.8-2.7-2.8-0.4-0.4-1.2-2.1-0.7-2.6z"/>
						</g>
					</g>
				</g>
				<g id="&lt;Group&gt;">
					<path id="&lt;Path&gt;" class="s8" d="m823.5 813.7c-3 6.9-6.3 13.3-11.7 18.4-6.1 5.8-17.3 5.3-21.2 9.5-6.8 7.3-26.9 40.3 6.2 37.4 7.7-0.7 34.3-3 37.7-16 5-19.2 3.8-27.5-5.3-41.8z"/>
				</g>
				<g id="&lt;Group&gt;">
					<g id="&lt;Group&gt;">
						<path id="&lt;Path&gt;" class="s15" d=""/>
					</g>
					<g id="&lt;Group&gt;">
						<path id="&lt;Path&gt;" class="s8" d="m631.5 953.1l166.6-101c21.5 3.9 19.3 13.6 19.3 13.6l-99.3 95.4c-41.4 41.3-73.1 48.8-73.1 48.8 0 0-27.2 12.8-33.5-27.3 0 0-2.6-18.1 20-29.5z"/>
					</g>
				</g>
				<path id="&lt;Path&gt;" class="s8" d="m550.2 786.5c11.9 27.3 50.5 181.1 65.2 203.1 3.9 5.8 41 21.3 51.7-13.5-15.8-140.9-39.8-226.8-39.8-226.8 0 0-37.6-34.4-70.2-5.7 0 0-15.3 23.9-6.9 42.9z"/>
				<path id="&lt;Path&gt;" class="s8" d="m554.3 751.1c-13.2 20.6-7.2 47.9 13.3 61.1 20.6 13.2 47.9 7.3 61.1-13.3 13.2-20.6 7.3-47.9-13.3-61.1-20.5-13.2-47.9-7.3-61.1 13.3z"/>
				<path id="&lt;Path&gt;" class="s11" d="m543.6 785.1l24.9 146.7c48.2 8.9 92.2-26.6 92.2-26.6l-20.6-130.9c0 0-15-52.2-58.5-57.2 0 0-49.5 9.4-38 68z"/>
				<path id="&lt;Path&gt;" class="s11" d="m597 916.1c8.1 28.8 22.2 206.9 22.2 206.9-21.4 57.2-225.6 8.9-226.8-4.1-1.4-15.6 2.8-125.3 6-189.5 0 0 81.3-59.4 198.6-13.3z"/>
				<path id="&lt;Path&gt;" class="s8" d="m790.5 845.5c0 0 7.6 10.7 14.1-3.7l-0.7-19c0 0 0.7-5.3-3.9-6.6 0 0-3.2 0-3.9 5.5z"/>
			</g>
		</g>
	</g>
</svg>