<svg version="1.2" xmlns="http://www.w3.org/2000/svg" viewBox="0 0 2240 2010" width="2240" height="2010">
	<title>6056251_57699-ai</title>
	<style>
		.s0 { fill: none;stroke: #fefefe;stroke-miterlimit:10;stroke-width: 14.6 } 
		.s1 { fill: #131e34 } 
		.s2 { fill: #f6a482 } 
		.s3 { fill: #f7b68e } 
		.s4 { fill: #15171b } 
		.s5 { fill: #000000 } 
		.s6 { fill: #e69375 } 
		.s7 { fill: #0b1429 } 
		.s8 { fill: #09b9c4 } 
		.s9 { fill: #3b2313 } 
		.s10 { fill: #f7a07c } 
		.s11 { fill: #e1866f } 
		.s12 { fill: #ea8c70 } 
		.s13 { fill: #fefefe } 
		.s14 { fill: #3cbfc5 } 
	</style>
	<g id="_Artboards_">
	</g>
	<g id="Capa 1">
		<g id="&lt;Group&gt;">
			<g id="&lt;Group&gt;">
				<g id="&lt;Group&gt;">
				</g>
				<g id="&lt;Group&gt;">
					<g id="&lt;Group&gt;" style="opacity: .6">
					</g>
					<g id="&lt;Group&gt;">
						<g id="&lt;Group&gt;">
							<path id="&lt;Path&gt;" class="s0" d="m1672.4 503.8h35.2"/>
							<path id="&lt;Path&gt;" class="s0" d="m1722.7 503.8h35.2"/>
						</g>
					</g>
					<g id="&lt;Group&gt;" style="opacity: .6">
					</g>
				</g>
			</g>
			<g id="&lt;Group&gt;">
			</g>
			<g id="&lt;Group&gt;">
			</g>
			<g id="&lt;Group&gt;">
			</g>
			<g id="&lt;Group&gt;">
				<g id="&lt;Group&gt;">
					<g id="&lt;Group&gt;">
					</g>
					<g id="&lt;Group&gt;">
					</g>
					<g id="&lt;Group&gt;">
					</g>
					<g id="&lt;Group&gt;">
					</g>
				</g>
				<g id="&lt;Group&gt;">
					<g id="&lt;Group&gt;">
					</g>
					<g id="&lt;Group&gt;">
					</g>
				</g>
				<g id="&lt;Group&gt;">
					<g id="&lt;Group&gt;">
					</g>
					<g id="&lt;Group&gt;">
					</g>
				</g>
				<path id="&lt;Path&gt;" class="s1" d=""/>
				<g id="&lt;Group&gt;">
				</g>
				<path id="&lt;Path&gt;" class="s2" d=""/>
				<g id="&lt;Group&gt;">
				</g>
				<g id="&lt;Group&gt;">
					<g id="&lt;Group&gt;">
						<g id="&lt;Group&gt;">
							<g id="&lt;Group&gt;">
								<g id="&lt;Group&gt;">
								</g>
							</g>
						</g>
					</g>
				</g>
				<g id="&lt;Group&gt;">
					<g id="&lt;Group&gt;">
						<g id="&lt;Group&gt;">
						</g>
					</g>
					<g id="&lt;Group&gt;">
						<g id="&lt;Group&gt;">
						</g>
					</g>
				</g>
				<g id="&lt;Group&gt;">
				</g>
				<g id="&lt;Group&gt;">
					<g id="&lt;Group&gt;">
						<path id="&lt;Path&gt;" class="s3" d=""/>
					</g>
					<g id="&lt;Group&gt;">
					</g>
				</g>
			</g>
			<g id="&lt;Group&gt;">
				<g id="&lt;Group&gt;">
					<g id="&lt;Group&gt;">
						<g id="&lt;Group&gt;">
							<g id="&lt;Group&gt;">
								<path id="&lt;Path&gt;" class="s4" d="m1712.1 1788.7c-15.5 15.6-41 23.9-41 23.9-21.5 5.5-34.2-8.8-34.2-8.8-4.6-6.5 1-10 1-10 45.4-34.5 59-44.3 59-44.3h41.7c2 16.7 0.9 23.5 0.9 23.5-3.7 4.9-11.3 11.9-22.9 13.8-0.9 0.2-2.5-1.1-3.3-0.7z"/>
							</g>
						</g>
						<g id="&lt;Group&gt;">
							<path id="&lt;Path&gt;" class="s5" d="m1637.7 1793.9c0.2 1 0.4 1.9 0.9 2.9 3.5 7.5 13.3 10.6 21.1 10.5 9.3-0.1 17.8-4.7 25.9-8.8 7.9-4 14.7-9 21.5-14.6 4.7-3.9 10.7-5.7 16.3-8.1 6.2-2.7 10.9-7 16.3-11 0.1 4.5-0.2 8.2-0.2 8.2-3.7 4.9-11.3 11.9-22.9 13.8-0.9 0.2-2.5-1.1-3.3-0.7l-1.2 2.6c-15.5 15.6-41 23.9-41 23.9-21.5 5.5-34.2-8.8-34.2-8.8-4.1-5.8-0.1-9.2 0.8-9.9z"/>
						</g>
					</g>
					<g id="&lt;Group&gt;">
						<path id="&lt;Path&gt;" class="s6" d="m1743.2 1411.5c-46.4 51.1-64.8-3-64.8-3l-5.7-314.5c-0.6 4.7-2.1-31.7 56.4-23.9 58.3 7.9 73.1 30.6 73.1 30.6 0 0-32.1 217.3-59 310.8z"/>
						<path id="&lt;Path&gt;" class="s6" d="m1678.1 1404.5c0 0 23.6 331.3 25.5 342.9 0 0 28.6 6.3 28.7-0.3 0.3-15.8 33-209.7 33.4-234.6 1-63.1-15.2-75.1-31.5-117.6 0 0-56.2-41.5-56.1 9.6z"/>
					</g>
					<g id="&lt;Group&gt;">
						<g id="&lt;Group&gt;">
							<path id="&lt;Path&gt;" class="s7" d="m1753.9 1413.6c26.9-93.5 48.3-312.9 48.3-312.9 0 0-14.8-22.7-73.1-30.6-58.5-7.8-57 28.6-56.4 23.9 0 0-10.8 155.5 5.4 310.5 0 0 39.8 31.8 75.8 9.1z"/>
							<path id="&lt;Path&gt;" class="s7" d="m1743.2 1411.5c-46.4 51.1-64.8-3-64.8-3"/>
							<path id="&lt;Path&gt;" class="s7" d="m1687.4 1746.6c-6.8-9.6-9.3-342.1-9.3-342.1-0.1-51.1 62.9-27.5 62.9-27.5 16.3 42.5 25.7 72.4 24.7 135.5-0.4 24.9-17.1 222.8-17.4 238.7 0 0-41.3 22.9-60.9-4.6z"/>
						</g>
					</g>
					<path id="&lt;Path&gt;" class="s7" d="m1799.8 1028.3c0 0 31.4 50.6 0 107.3-31.3 56.7-127 36-127.3-37.4-0.2-72.6 65.8-100.3 127.3-69.9z"/>
					<path id="&lt;Path&gt;" class="s2" d="m1845.5 925.3c8.3 29.4 42.4 141.7 42.4 141.7-122.1 146.2-214.1 18.3-215.4 5-1.4-16 16.4-76.9 19.6-142.6 0 0 33.3-51.3 153.4-4.1z"/>
					<path id="&lt;Path&gt;" class="s7" d="m1673.3 1108.5c-5.8-39.3 6.2-79 12.3-118.8h179c11.4 38.1 23.3 77.3 23.3 77.3 0 0 7.7 90.2-68.9 101.1 0 0-133.6 23.1-145.7-59.6z"/>
					<g id="&lt;Group&gt;">
						<path id="&lt;Path&gt;" class="s2" d="m1876.8 1418.4c-38.2 57.4-64.4 6.6-64.4 6.6l-62.1-306.4c0.1 4.7 1.9-39.9 60.9-40.8 58.9-0.8 76.9 19.5 76.9 19.5 0 0 1.5 224.6-11.3 321.1z"/>
						<path id="&lt;Path&gt;" class="s2" d="m1811.5 1421.1c0 0 61.4 349.1 65 360.3 0 0 29.3 2 28.4-4.5-2-15.8 3.2-235.9 0-260.6-8.3-62.6-17-73.3-39.4-113 0 0-61.7-32.8-54 17.8z"/>
					</g>
					<g id="&lt;Group&gt;">
						<g id="&lt;Group&gt;">
							<path id="&lt;Path&gt;" class="s4" d="m1873.8 1774.6l-17.3 52.8c0 0 3.5 47.1 41.4 17.9l11.3-10.9c5.7-4.9 4-11.6 4-11.6l-3.3-20.2-4.1-28c0 0-23.7-16.1-32 0z"/>
						</g>
						<g id="&lt;Group&gt;">
							<path id="&lt;Path&gt;" class="s5" d="m1897.9 1838.6l11.3-11c2.2-1.9 3.3-4 3.8-6l0.2 1.2c0 0 1.7 6.7-4 11.6l-11.3 10.9c-37.9 29.2-41.4-17.9-41.4-17.9l0.6-2.1c2.2 11.1 10.5 36.7 40.8 13.3z"/>
						</g>
					</g>
					<g id="&lt;Group&gt;">
						<g id="&lt;Group&gt;">
							<path id="&lt;Path&gt;" class="s1" d=""/>
							<path id="&lt;Path&gt;" class="s1" d="m1885 1419.5c12.8-96.4 2.9-352.5 2.9-352.5 0 0-15.3-22.7-74.1-21.8-59.1 0.8-71.2 68-71.3 63.3 0 0 49.7 262.3 71.3 325.6 0 0 36.4 31.1 71.2-14.6z"/>
							<path id="&lt;Path&gt;" class="s1" d="m1862 1778.2c-3.6-11.2-51.9-359.4-51.9-359.4-0.6-47.3 61.6-35.7 61.6-35.7 22.4 39.7 27.6 58.2 35.9 120.8 3.2 24.7 9.6 253.3 11.6 269.1 0 0-26.1 18.1-57.2 5.2z"/>
						</g>
					</g>
					<g id="&lt;Group&gt;">
						<path id="&lt;Path&gt;" class="s6" d="m1711 703.7c0 0-21.5 152.8-42.6 212.3 0 0-34.9 7.5-46.2-12.2 0 0 3.9-130.7 8.4-209.4 0 0 42.9-48.3 80.4 9.3z"/>
						<path id="&lt;Path&gt;" class="s6" d="m1622.2 903.8c0 0-7.4 126-14.8 175.4 0 0 6.1 13.8 14.4 3.6 13.8-17.1 55-172.3 47.1-182-36.8-45.3-46.7 3-46.7 3z"/>
						<path id="&lt;Path&gt;" class="s6" d="m1646.7 728.9c17.8 13.6 43.3 10.2 56.9-7.5 13.5-17.6 10-42.9-7.9-56.5-17.9-13.5-43.3-10.1-56.9 7.5-13.5 17.7-10 43 7.9 56.5z"/>
						<g id="&lt;Group&gt;">
							<path id="&lt;Path&gt;" class="s6" d="m1621.1 1104.6l-6.1 17.5 6 25.9c0 0-5.2 3.1-8.6-5.6l-5.6-21.5 5.1-20.1z"/>
							<path id="&lt;Path&gt;" class="s6" d="m1615.1 1109.8l-7 17.2 4.5 26.1c0 0-5.3 2.9-8.3-6.1l-4.4-21.7 6.3-19.8z"/>
							<path id="&lt;Path&gt;" class="s6" d="m1594.2 1110l7.2-20.3 8.5-25.4 16.7 0.8 0.4 28.5-1.3 14.7-2.1 19.9-0.3 6.5c0 0-5.4 0.7-7.5-10.1l-0.6-19.3-9.8 13.2 1.1 26.7c0 0-4 13.1-7.1 7.3l-6.7-38.4z"/>
						</g>
					</g>
					<path id="&lt;Path&gt;" class="s8" d="m1659.8 656.5c0 0-36.8 8.5-38.7 51.2l-6 153.4c0 0 36.8 24.4 84.4 20.3 0 0 54.9-205-39.7-224.9z"/>
					<path id="&lt;Path&gt;" class="s9" d="m1687.6 525.8c-4.7-4.2-13.9-17-13.5-23.5 0.2-2 2.1-3.6 2.1-6 0-2.6-1.1-3.5-2-5.6-1.9-4.3-2.3-6.7-2.3-11.8 0-3.6-0.7-10.6 1.7-13.4 3.7-4.3 10.9-0.8 14.7 1.5 7.9 4.7 12.4 12.3 20.6 16.9 6.9 3.8 9.2 8.4 13.1 15.1 4.9 8.5 9 24.1-1.5 30.5-9.7 5.9-24.9 3.4-32.9-3.7z"/>
					<path id="&lt;Path&gt;" class="s2" d=""/>
					<path id="&lt;Path&gt;" class="s10" d="m1784.3 614.2c0 0 7.2-13.8 23-40.4 0 0 33.8-34.7 14.9-78.3 0 0-10.4-36.4-74.2-31.1 0 0-6.1 100.3 36.3 149.8z"/>
					<path id="&lt;Path&gt;" class="s2" d="m1786.8 557.4c0 0-10.7 100 12.1 107.6l-81.5-4.9c0 0 12.8-30.2-2.1-52.5z"/>
					<path id="&lt;Path&gt;" class="s11" d="m1721.8 642.7c1.4-22.9-1.5-27.5-6.5-35.1l71.5-50.2c0 0-3.5 32.3-2.3 61.6-20.7 19.6-37.8 24.2-62.7 23.7z"/>
					<path id="&lt;Path&gt;" class="s2" d="m1659.8 656.5c-18.1 13.3-20.2 45-13.7 64.8 7.4 22.8 10.4 51.8 17.8 84.8 10.1 44.6 17 79 28.2 123.3 9.3 36.6 156.6 7.1 156.6 7.1l52.8-180.4c0 0 9.1-47.1-33.6-62.7 0 0-44.9-24.3-77.8-35.4-29.1-9.9-39.6-10.8-69.4-9 0 0-40 1.5-60.9 7.5z"/>
					<g id="&lt;Group&gt;">
						<path id="&lt;Path&gt;" class="s10" d="m1698.7 621.9l-3.4-11.3c0 0-8.6-41.9-8.6-41.9-1.1-5.2-0.7-12.1 0.7-17.3 1.4-5.7 2.5-11.7 1.4-17.9-5.1-30 11.2-45.6 11.2-45.6 18.7-26.5 59.7-24.4 59.7-24.4 50.6 5 52.4 54.3 52.4 54.3 6.6 33.1-20.7 58.9-20.8 59-2.2 2.1-1.7 12.9-2.4 15.9-3.4 12.9-16.2 20.3-27.6 25.2-12.4 5.5-27.4 11.2-41 11.7-5.2 0.3-19.7-1.2-21.6-7.7z"/>
					</g>
					<path id="&lt;Path&gt;" class="s9" d="m1770.1 517.9c-15.2-18.5-44.4-1.7-63.2-13.2-8.8-5.3-8.6-14.9-20.1-14.9-24.5-0.1-21.6-26.3-8-34 2.8-0.2 5.6 0 8.3 0.3 6.7 0.8 11.1 3.8 18 1.3 7.1-2.6 13.2-7.4 20-10.8 8.7-4.4 17.6-10.1 27.6-10.6 12.3-0.6 16.2 8.4 25.3 14.3 6.1 4 13.6 3.5 20.3 5.9 10 3.6 18.9 9.8 28 15.2 6.4 3.7 15.1 8.7 14.2 17.4-0.9 8.1-9.2 10-6.7 18.9 4.4 15.4 1.3 31.3-4.2 45.9-3.4 9-6.7 18.1-11.9 26.2-5.3 8.2-12.2 15.2-19.6 21.6-2.5 2.2-10.6 8.1-13.8 12.8-0.5-20.1 3.5-18.5-1.7-28.5-2.1-3.9 0.2-7.2 1.6-11.1 1.5-3.8 4.8-7 4.3-11.2-2.6 0.8-5.1 1.2-6.5 0-2.5-2.1-0.4-9.1-0.9-11.9-1.4-9.2-2.7-19.3-7.2-27.7q-1.8-3.4-3.8-5.9z"/>
					<g id="&lt;Group&gt;">
						<g id="&lt;Group&gt;">
							<g id="&lt;Group&gt;">
								<g id="&lt;Group&gt;">
									<g id="&lt;Group&gt;">
										<g id="&lt;Group&gt;">
											<path id="&lt;Path&gt;" class="s10" d="m1783.4 585.8c1.7 1.6 4 2.7 7 3 8.1 0.9 15.6-5.8 16.9-15 1.3-9.1-4.2-17.2-12.2-18-3.8-0.4-7.5 0.9-10.5 3.3-4.4 3.6-5.4 11-5.1 16.3 0.2 4.2 1.4 7.9 3.9 10.4z"/>
										</g>
									</g>
								</g>
							</g>
						</g>
						<g id="&lt;Group&gt;">
							<g id="&lt;Group&gt;">
								<g id="&lt;Group&gt;">
									<path id="&lt;Path&gt;" class="s12" d="m1790.8 563.9c1.1-4.8 10.2 1 8.4 3.5-1 1.5-2.8 2.4-4.3 3.4-2 1.2-3.1 2.5-3.6 4.8-0.1 0.3-0.3 1.1 0 1.4 1.2 1 5.8-3.2 6.9-4.1 2-1.7 2.6-5 2.1-7.5-0.6-2.7-2.2-4.1-4.9-4.3-2.2-0.1-4.5-0.2-4.7 2.5 0 0.1 0.1 0.5 0.1 0.3z"/>
								</g>
							</g>
							<g id="&lt;Group&gt;">
								<g id="&lt;Group&gt;">
									<path id="&lt;Path&gt;" class="s12" d="m1793.3 569.3c-0.9-1.2-1.9-0.5-3.1 0.2-1 0.5-1.7 1.5-2 2.6-0.9 2.4-1 5.8 0.2 8.2 1 1.9 2.8 3.2 4.9 3.4 2.9 0.2 4.1-2.3 4.5-4.7 0.1-0.7 0.4-2.2-0.2-2.7-0.7-0.5-1.3 0.5-1.8 0.9-0.8 0.5-1.7 0.6-2.6 0.6-1.7 0-3.2-1.1-4.1-2.4-0.2-0.3-0.3-0.6-0.4-0.9q-0.3 2.5 0.1 1.2 0.3-0.6 0.7-1.1c0.8-1.1 2.1-1.7 3-2.7 0.4-0.4 1.3-2.1 0.8-2.6z"/>
								</g>
							</g>
						</g>
					</g>
					<g id="&lt;Group&gt;">
						<path id="&lt;Path&gt;" class="s12" d="m1713.2 565.5l13.8 5.3c0 0-18.6 1.2-19.3-4.2 0 0 2.8-10.6 5.9-20.6 0 0-2.4 18.7-0.4 19.5z"/>
					</g>
					<g id="&lt;Group&gt;">
						<path id="&lt;Path&gt;" class="s9" d="m1737.3 546c0 2.9 1.6 5.3 3.6 5.3 1.9 0 3.5-2.4 3.5-5.3 0-2.9-1.6-5.3-3.5-5.3-2 0-3.6 2.4-3.6 5.3z"/>
						<path id="&lt;Path&gt;" class="s9" d="m1697.5 541.6c0 2.9 1.6 5.3 3.6 5.3 2 0 3.6-2.4 3.6-5.3 0-2.9-1.6-5.3-3.6-5.3-2 0-3.6 2.4-3.6 5.3z"/>
						<path id="&lt;Path&gt;" class="s9" d="m1733.6 535.8c-1.3 0.3-1.6-1.5-1.6-1.5-0.5-1.6 0-3.1 0-3.1 0.6-1.2 1.6-1.5 1.6-1.5 3.3-0.5 9.7 0.3 15.2 2 3 0.9 7.9 3.1 8.2 5.9 0.1 0.8 0.2 2.3-0.7 2.5 0 0-10.4-3.2-22.7-4.3z"/>
						<path id="&lt;Path&gt;" class="s9" d="m1688.3 531.3c3.6 0 10 0.4 17.8 1.8 1.2 0.6 1.9-0.9 1.9-0.9 0.9-1.6 0.8-3 0.8-3.1-0.2-1.2-1-1.9-1-1.9-3.1-1.3-7.5-2.1-13.2-2-1.7 0-4.7 0.2-6.6 0.9 0 0-0.4 1 0.3 5.2z"/>
					</g>
					<g id="&lt;Group&gt;">
						<path id="&lt;Path&gt;" class="s13" d="m1705.5 582.3c-1.1 0-1.7 0.5-1.3 1.3 0 0 5 9.4 13.7 10.4 8.6 1.1 15.7-6.8 15.7-6.8 0.7-0.8 0.1-1.5-1.3-1.7 0 0-15-1.9-26.8-3.2z"/>
					</g>
					<path id="&lt;Path&gt;" class="s1" d="m1875.6 1031.3c0 0 31.3 50.6 0 107.3-31.4 56.7-127 36-127.3-37.4-0.3-72.6 65.7-100.3 127.3-69.9z"/>
					<path id="&lt;Path&gt;" class="s14" d="m1720.7 649c0 0-40 1.5-60.9 7.5-18.1 13.3-20.2 45-13.7 64.8 7.4 22.8 10.4 51.8 17.8 84.8 10.1 44.6 9.2 79.3 20.5 123.6 9.3 36.7 181.8 4.1 181.8 4.1l35.3-177.7c0 0 9.1-47.1-33.6-62.7 0 0-42.9-23.6-75.8-34.7 0 0 5.2 34.7-51.4 25.1 0 0-34.5-8.3-20-34.8z"/>
					<path id="&lt;Path&gt;" class="s14" d="m1866.2 933.8c8.3 29.4 25.3 122.5 25.3 122.5-22.4 92.9-228.5 26-229.7 12.7-1.4-15.9 16.5-85.9 19.7-151.6 0 0 64.6-30.8 184.7 16.4z"/>
					<path id="&lt;Path&gt;" class="s2" d="m1825.9 769.7c20.1 22.9 92 127.8 113.2 144.6 5.6 4.5 53.8 24.9 53.3-12.4-59.5-132.3-103.1-192.6-103.1-192.6 0 0-47.4-21.7-70.2 16.5 0 0-7.4 28.1 6.8 43.9z"/>
					<path id="&lt;Path&gt;" class="s2" d="m1810.3 736.1c-4.4 26.2 13.3 51.1 39.5 55.5 26.3 4.5 51.2-13.2 55.6-39.5 4.4-26.2-13.3-51.1-39.5-55.5-26.3-4.5-51.2 13.2-55.6 39.5z"/>
					<path id="&lt;Path&gt;" class="s14" d="m1852.3 685.2c0 0 40 15.5 58.3 45.4l47.7 73.8c0 0-19.5 55.8-68.2 67.4l-76.3-92.8c0 0-43.2-54.4 38.5-93.8z"/>
					<g id="&lt;Group&gt;">
						<path id="&lt;Path&gt;" class="s2" d="m1935.3 905.3c0 0-24 70.1-46 174.4 0 0 4 18.4 16.6 10.3 12.7-8.1 88.9-164.2 86.5-178.4-6.1-36.6-57.1-6.3-57.1-6.3z"/>
						<path id="&lt;Path&gt;" class="s2" d="m1889.3 1079.7l-22.1 11.4-29.2 6.9c4.9 11.2 16.7 7.7 16.7 7.7-10.4 16.9-16.2 29.7-16.2 29.7-4.2 5.8 2.2 7.3 2.2 7.3 9.2-4.9 24.7-23.1 24.7-23.1-7.3 11.5-22.1 28.7-22.1 28.7-2.6 5.5 3.6 5.7 3.6 5.7 14.1-3.2 26.1-27.5 26.1-27.5-4.3 9.3-18.2 26.7-18.2 26.7 0.1 4.4 2.4 3.7 2.4 3.7 11.6-0.9 23-24.3 23-24.3l-4.5 8.7c-7.2 11.3 1.4 10.5 1.4 10.5l4.7-5.3c14.1-16.4 17.1-34.3 17.1-34.3l7-22.2z"/>
					</g>
					<path id="&lt;Path&gt;" class="s1" d="m1890.1 1141.5c0 0-24.2 0.8-40.9-32.3h-49.4l23.2 133h60.2z"/>
				</g>
			</g>
			<g id="&lt;Group&gt;">
				<g id="&lt;Group&gt;">
					<g id="&lt;Group&gt;">
						<g id="&lt;Group&gt;">
							<g id="&lt;Group&gt;">
							</g>
							<g id="&lt;Group&gt;">
								<g id="&lt;Group&gt;">
								</g>
								<g id="&lt;Group&gt;">
								</g>
							</g>
						</g>
					</g>
					<g id="&lt;Group&gt;">
						<g id="&lt;Group&gt;">
							<g id="&lt;Group&gt;">
								<g id="&lt;Group&gt;">
								</g>
								<g id="&lt;Group&gt;">
									<g id="&lt;Group&gt;">
									</g>
									<g id="&lt;Group&gt;">
									</g>
								</g>
							</g>
						</g>
						<g id="&lt;Group&gt;">
						</g>
						<g id="&lt;Group&gt;">
							<g id="&lt;Group&gt;">
								<g id="&lt;Group&gt;">
									<g id="&lt;Group&gt;">
										<g id="&lt;Group&gt;">
											<g id="&lt;Group&gt;">
											</g>
										</g>
									</g>
								</g>
							</g>
							<g id="&lt;Group&gt;">
								<g id="&lt;Group&gt;">
									<g id="&lt;Group&gt;">
									</g>
								</g>
								<g id="&lt;Group&gt;">
									<g id="&lt;Group&gt;">
									</g>
								</g>
							</g>
						</g>
						<g id="&lt;Group&gt;">
							<g id="&lt;Group&gt;">
							</g>
						</g>
						<g id="&lt;Group&gt;">
							<g id="&lt;Group&gt;">
								<g id="&lt;Group&gt;">
								</g>
								<g id="&lt;Group&gt;">
								</g>
							</g>
						</g>
						<g id="&lt;Group&gt;">
						</g>
					</g>
				</g>
			</g>
		</g>
	</g>
</svg>