<svg version="1.2" xmlns="http://www.w3.org/2000/svg" viewBox="0 0 2240 2010" width="2240" height="2010">
	<title>6056251_57699-ai</title>
	<style>
		.s0 { fill: #3e1704 } 
		.s1 { fill: #551035 } 
		.s2 { fill: #131e34 } 
		.s3 { fill: #e69375 } 
		.s4 { fill: #f6a482 } 
		.s5 { fill: #e1866f } 
		.s6 { fill: #6551a1 } 
		.s7 { fill: #112a66 } 
		.s8 { fill: #f7a07c } 
		.s9 { fill: #ea8c70 } 
		.s10 { fill: #3b2313 } 
		.s11 { fill: #fefefe } 
		.s12 { fill: #22376e } 
		.s13 { fill: #335094 } 
		.s14 { fill: #a4ddf6 } 
		.s15 { fill: none;stroke: #335094;stroke-miterlimit:10;stroke-width: .9 } 
		.s16 { fill: #cb4d7d } 
	</style>
	<g id="Capa 1">
		<g id="&lt;Group&gt;">
			<g id="&lt;Group&gt;">
				<path id="&lt;Path&gt;" class="s0" d="m1370.2 578.3c-4.3 31.3-15.3 39.5-5.5 72.2 9.1 30.2 34.1 52.3 37.4 84.9 2.4 23.1-3.6 60.8-18.9 79.4-22.3 27-73 11.8-102 7.1-32.9-5.3-106.3-7.6-126.6-40.1-15.4-24.6 4.1-68.3 10.4-93.5 8-31.9 16.4-63.8 23.8-95.9 6.7-29.2 15.2-78 38.2-99.6 23-21.6 49-15.6 78-12.3 34.7 3.9 70.6 58.6 65.2 97.8z"/>
				<g id="&lt;Group&gt;">
					<g id="&lt;Group&gt;">
						<path id="&lt;Path&gt;" class="s1" d="m1284.8 1786.2l-3.7-0.7-3.7-30.9 9.7-11.4z"/>
						<g id="&lt;Group&gt;">
							<g id="&lt;Group&gt;">
								<path id="&lt;Path&gt;" class="s2" d="m1289.2 1783.7l-4.4 2.5 0.6-50.6 7.9-1.8z"/>
							</g>
							<g id="&lt;Group&gt;">
								<path id="&lt;Path&gt;" class="s3" d="m1255.2 1720l-8.2 27.1c0 0-11.2 26.2-20.4 36.5 0 0-16.7 22.8 14.5 21.2 0 0 33.2-1.7 32.7-23-0.5-18.3 16.3-41.1 16.3-41.1 6.2-10.7 0-19.4-2.1-21.8l-5.8-6.6-27.9-4.9z"/>
								<g id="&lt;Group&gt;">
									<path id="&lt;Path&gt;" class="s2" d="m1224.8 1792c13.7 2.5 27.6-2.6 36.1-11 8.7-8.5 18.5-39.6 15.2-29.2-1.3 4.2 8.8-33.6 6.1-39.5l5.8 6.6c2.1 2.4 8.9 11.7 2.7 22.4 0 0-17.4 22.2-16.9 40.5 0.5 21.3-32.7 23-32.7 23-18.7 1-20.2-6.9-18.4-13.3q1 0.3 2.1 0.5z"/>
								</g>
								<g id="&lt;Group&gt;">
									<path id="&lt;Path&gt;" class="s2" d="m1209.1 1801.1c0 0-4.7 8.8 10.2 8.8 0 0 55.7-3.5 55.7-27.4v-19.3c0 0-4.4 27.5-38.8 27.6 0 0-15.2 0-7.4-9.8z"/>
								</g>
							</g>
						</g>
					</g>
					<g id="&lt;Group&gt;">
						<path id="&lt;Path&gt;" class="s4" d="m1317.9 680.8h-73c3.3-10.6 10.2-38.1-0.4-56.8l73.7-48.5c0 0-13.1 81.3-0.3 105.3z"/>
						<path id="&lt;Path&gt;" class="s5" d="m1309.7 635c-4.4 11.1-11.4 16.6-23 20.2-12.7 4.1-25 4.9-37 2.8 1.1-11.2 0.5-23.9-5.2-34l73.7-48.5c0 0-4 24.8-5.4 51.1-1 2.8-2 5.6-3.1 8.4z"/>
						<path id="&lt;Path&gt;" class="s4" d="m1230.4 640.9l-3.9-11-9.4-32.3c-1.3-5.1-1.9-12.1-0.2-17.2 2.1-6 3.8-15.8 1.5-26.8-6-29.4 7.1-44.7 7.1-44.7 17.1-27 57.6-26.9 57.6-26.9 50.1 2.6 54.1 51.1 54.1 51.1 8.1 32.2-17.6 59-17.7 59-3.2 3.4-3.6 8.9-5.1 13.1-1.7 4.5-4.3 8.7-7.4 12.3-7 8-16.2 15.8-25.7 20.6-8.9 4.5-26.2 9.2-38.5 9.1-5.2-0.1-10.2 0-12.4-6.3z"/>
						<g id="&lt;Group&gt;">
							<path id="&lt;Path&gt;" class="s1" d="m1464.1 1790.4l-3.7 0.5-13.4-28.1 5.4-13.9z"/>
							<g id="&lt;Group&gt;">
								<g id="&lt;Group&gt;">
									<path id="&lt;Path&gt;" class="s2" d="m1467.5 1786.6l-3.4 3.8-15.6-48.2 6.8-4.1z"/>
								</g>
								<g id="&lt;Group&gt;">
									<path id="&lt;Path&gt;" class="s4" d="m1414.8 1737.2c0.8 22.6 2.4 48-6.7 69.4 0 0-8.4 26.9 20.6 15.5 0 0 30.9-12.4 23.5-32.4-6.2-17.2 2.4-44.1 2.4-44.1 2.4-12.1-6.3-18.4-9.1-20l-7.5-4.4h-29z"/>
									<g id="&lt;Group&gt;">
										<path id="&lt;Path&gt;" class="s2" d="m1409.1 1815.1c13.8-2 25.4-11.3 30.7-22 5.5-10.8 4.8-43.4 5.1-32.6 0.1 4.5-2.5-34.6-6.9-39.3l7.5 4.4c2.8 1.6 12.3 8.2 9.8 20.4 0 0-9.3 26.5-3.1 43.7 7.4 20-23.5 32.4-23.5 32.4-17.4 6.8-21.3-0.1-21.7-6.8q1 0 2.1-0.2z"/>
									</g>
									<g id="&lt;Group&gt;">
										<path id="&lt;Path&gt;" class="s2" d="m1397.2 1828.7c0 0-1.6 9.9 12.5 5.2 0 0 51.6-21.2 43.9-43.9l-6.1-18.3c0 0 4.6 27.5-27.9 38.6 0 0-14.5 4.9-10.1-6.9z"/>
									</g>
								</g>
							</g>
						</g>
						<path id="&lt;Path&gt;" class="s4" d="m1382.8 1399.4c37 68.4 43.5 96.2 50.1 148.2 3.9 30.2 2.6 157.6 6.6 176.6 1.6 7.8-28.3 3.5-28.3 3.5-5.5-13.3-92.6-305.9-92.6-305.9 0 0-9.8-30.3-1.7-35.6 40.6-26.4 49.7-16.5 65.9 13.2z"/>
						<path id="&lt;Path&gt;" class="s4" d="m1216.6 905.1c0 0-28.4 120.4-24.6 133.6 11 37.9 118.2 126.2 211.3 48.6 0 0-19.2-135-70.6-199.5 0 0-16.3 16.8-116.1 17.3z"/>
						<path id="&lt;Path&gt;" class="s6" d="m1231.1 660.5c0 0-37.2 71.9-53.8 111.4 6.9 46.3 32.1 115 42.2 129.5 22.1 31.7 123.4 3.4 123.4 3.4l29.2-97.5c-85.2-30.6-40.3-120.4-40.3-120.4l-13.4-8.4c0 0-13.6 44.1-69.1 42.5 0 0-18.2-11.8-4.8-62.2 0 0-8 0.3-13.4 1.7z"/>
						<path id="&lt;Path&gt;" class="s3" d="m1323.8 1071.1c0 0-9.8 194.2-45.7 298.7-5.4 15.6-66.8-5.1-66.8-5.1 0 0-31-167.1-29.1-236.4 1-39.1 15-123.5 15-123.5 0 0 115.2-15.1 126.6 66.3z"/>
						<path id="&lt;Path&gt;" class="s3" d="m1276.3 1369.1l-65-4.4c0 0 39.9 331.6 43.6 345.5 0 0 27.9 10.1 27.3 2.1-1.3-19.4 22-168.2 22.7-198.6 1.1-49-0.8-79.9-28.6-144.6z"/>
						<g id="&lt;Group&gt;">
							<path id="&lt;Path&gt;" class="s3" d="m1254.4 696.4c4.2 23.3-11.3 45.5-34.6 49.7-23.3 4.2-79.5 6.4-70.3-15.4 17.7-42 37.1-63.8 60.4-68 23.3-4.2 40.3 10.4 44.5 33.7z"/>
							<path id="&lt;Path&gt;" class="s3" d="m1234.6 730.4l-19.6-38.5-44.4-0.8c0 0-57.2 105.3-67.9 136.6-11.5 33.4 15.5 20.8 26.8 17.1 0 0 93.7-89.3 105.1-114.4z"/>
							<path id="&lt;Path&gt;" class="s3" d="m1129.5 844.8c0 0-36.6 46.2-61 57.3 0 0-25.1-17.1 32.4-68.5 0 0 21.1-20.5 28.6 11.2z"/>
						</g>
						<path id="&lt;Path&gt;" class="s4" d="m1403.3 1087.3c0 0-0.8 194.4-26.4 301.8-3.8 16.1-62.4 11.1-62.4 11.1 0 0-38.2-183.7-43-252.8-2.8-39.1-10.6-107.4-10.6-107.4 0 0 137.1-13.6 142.4 47.3z"/>
						<path id="&lt;Path&gt;" class="s4" d="m1374.9 710.3c29.9 21.8 14.6 54.7 14.6 54.7l-56.4 137c0 0-91.5 31.1-113.6-0.6-10.1-14.5-19.5-52.9-31.8-108.3-8.3-37.7-8.9-103.4 12.3-122.9 12.2-11.2 51.8-11 52.1-12.4l64.1 20.7z"/>
						<path id="&lt;Path&gt;" class="s4" d="m1254.1 890.8c-5.4-1-34.6 10.6-34.6 10.6 0 0-21.1 89.7-22.3 103.4-1.2 13.6 92.7 84.3 197.6 44.1 0 0-53-124.9-60.7-151.1-8.9-30-80-7-80-7z"/>
						<path id="&lt;Path&gt;" class="s7" d="m1203.2 716c0 0-30.9 36.4-33.5 63.5-1.5 15.1 17.6 40.3 27.1 49.6 6.7 6.6 46.7-88 6.4-113.1z"/>
						<path id="&lt;Path&gt;" class="s0" d="m1313.9 610.8c0.3-22.8-0.3-21.4-0.3-21.4-0.5-6.7-13.6 7.7-13.4-1 1.3-39.8-13.2-58.8-18.9-61.9-15.3-8.3-31.5-10.7-44.4-8.4-20.1 3.6-19.4 30.4-19.4 30.4-17.1-98.2 92.4-66.8 92.4-66.8 53.3 14 47.8 64.3 47.8 64.3 6.5 53.9-44.6 85.1-44.6 85.1z"/>
						<g id="&lt;Group&gt;">
							<g id="&lt;Group&gt;">
								<g id="&lt;Group&gt;">
									<g id="&lt;Group&gt;">
										<g id="&lt;Group&gt;">
											<g id="&lt;Group&gt;">
												<path id="&lt;Path&gt;" class="s8" d="m1310.4 603c1.8 1.4 4.1 2.2 7 2.2 7.7-0.1 14.2-7.4 14.3-16.2 0.2-8.8-5.9-15.9-13.6-15.8-3.7 0.1-7.1 1.7-9.6 4.4-3.8 3.9-3.9 11.1-3 16 0.7 4 2.3 7.4 4.9 9.4z"/>
											</g>
										</g>
									</g>
								</g>
							</g>
							<g id="&lt;Group&gt;">
								<g id="&lt;Group&gt;">
									<g id="&lt;Group&gt;">
										<path id="&lt;Path&gt;" class="s9" d="m1314.9 581.4c0.5-4.6 9.9-0.2 8.4 2.4-0.8 1.5-2.4 2.6-3.7 3.7-1.8 1.4-2.7 2.7-2.9 5 0 0.3-0.1 1.1 0.2 1.3 1.2 0.8 5.2-3.7 6-4.6 1.8-1.9 2-5.1 1.2-7.4-0.9-2.5-2.5-3.7-5.2-3.5-2.1 0.1-4.2 0.3-4.1 2.9 0 0 0.1 0.5 0.1 0.2z"/>
									</g>
								</g>
								<g id="&lt;Group&gt;">
									<g id="&lt;Group&gt;">
										<path id="&lt;Path&gt;" class="s9" d="m1317.9 586.2c-1-0.9-1.9-0.1-2.9 0.6-0.9 0.7-1.4 1.6-1.7 2.7-0.5 2.4-0.2 5.6 1.2 7.7 1.1 1.7 3 2.8 5 2.7 2.9-0.1 3.7-2.6 3.8-4.9 0-0.7 0.1-2.2-0.5-2.6-0.7-0.4-1.2 0.6-1.6 1.1-0.7 0.6-1.6 0.8-2.4 0.9-1.6 0.1-3.2-0.7-4.2-1.9-0.2-0.2-0.4-0.5-0.5-0.7q0 2.3 0.3 1 0.2-0.6 0.5-1.1c0.7-1 1.8-1.8 2.5-2.8 0.4-0.5 1-2.2 0.5-2.7z"/>
									</g>
								</g>
							</g>
						</g>
						<g id="&lt;Group&gt;">
							<path id="&lt;Path&gt;" class="s10" d="m1266 569c-0.2 2.7 1.1 5.1 2.9 5.3 1.9 0.2 3.7-1.9 3.9-4.7 0.3-2.8-1-5.2-2.9-5.3-1.9-0.2-3.6 1.9-3.9 4.7z"/>
							<path id="&lt;Path&gt;" class="s10" d="m1227.5 563.8c-0.1 2.7 1.3 5.1 3.2 5.1 1.9 0.1 3.5-2.1 3.7-4.9 0.1-2.8-1.4-5.1-3.3-5.2-1.9 0-3.5 2.2-3.6 5z"/>
							<path id="&lt;Path&gt;" class="s0" d="m1282.6 565.2c-7.2-7.6-24.3-7-24.3-7 0 0-1.1 0-0.8-3.5 0 0 0.1-3.1 2.6-2.8 0 0 21.6-1.4 22.5 13.3z"/>
							<path id="&lt;Path&gt;" class="s0" d="m1217.5 548.5c8.9-4.3 21.7 0.8 21.7 0.8 2.4 0.4 1.7 3.4 1.7 3.4-0.6 3.4-1.7 3.1-1.7 3.1 0 0-12.1-6-21.1-3.9-0.4-2.3-0.3-2.1-0.6-3.4z"/>
							<g id="&lt;Group&gt;">
								<path id="&lt;Path&gt;" class="s11" d="m1232.4 604.1l27.4 5.1c1.4 0.3 2 1.1 1.2 1.9 0 0-7.8 7.9-16.7 6.2-8.9-1.6-13.4-11.9-13.4-11.9-0.4-0.8 0.3-1.4 1.5-1.3z"/>
							</g>
							<path id="&lt;Path&gt;" class="s9" d="m1252.1 595.5c-14.4-1.1-15.2-4.8-15.2-4.8l7.6-15.2c0 0-1.8 15.2 7.6 20z"/>
						</g>
						<g id="&lt;Group&gt;">
							<g id="&lt;Group&gt;">
								<g id="&lt;Group&gt;">
									<path id="&lt;Path&gt;" class="s12" d="m1049.4 818.8l34.6 140c0 2.5 1.8 3 1.8 3l61.3 25.6c3.1 0.5 2.8-2.5 2.8-2.5l-34.7-139.1c0-3-1.9-3.4-1.9-3.4l-61-25.4c0 0-2.9-1.3-2.9 1.8z"/>
								</g>
								<g id="&lt;Group&gt;">
									<path id="&lt;Path&gt;" class="s13" d="m1154.6 983.7l-5.9 4c1.1-0.3 1.2-2.2 1.2-2.2l-34.7-139.6 5.2-3.5 34.7 140.3c0 0 0.1 0.7-0.5 1z"/>
									<path id="&lt;Path&gt;" class="s13" d="m1113.9 842.7c0 0 1.3 0.7 1.3 3.2l5.2-3.5c0-1.8-0.9-2.8-1.4-3.2z"/>
									<path id="&lt;Path&gt;" class="s14" d="m1119 839.2c-0.2-0.1-0.4-0.2-0.4-0.2l-61.1-25.5c0 0-1.7-1-3.5 0.2l-3.7 2.4c0 0-0.9 0.5-0.8 2 0 0 0.2-2 2.7-1.2l61.7 25.8z"/>
								</g>
								<path id="&lt;Path&gt;" class="s15" d="m1049.4 818.8l34.6 140c0 2.5 1.8 3 1.8 3l61.3 25.6c3.1 0.5 2.8-2.5 2.8-2.5l-34.7-139.1c0-3-1.9-3.4-1.9-3.4l-61-25.4c0 0-2.9-1.3-2.9 1.8z"/>
							</g>
							<path id="&lt;Path&gt;" class="s3" d="m1062.1 870.9c3.3 6 6.8 11.5 12.1 15.6 6 4.8 16 3.4 19.9 6.8 6.7 6.1 1.9 22.4-12.3 38.8-12.3 14.2-21.4-4.4-25.5-15.9-6.2-16.9-5.8-24.4 1.2-38z"/>
						</g>
						<path id="&lt;Path&gt;" class="s11" d="m1310.1 604.7c0 2.6 2.1 4.7 4.7 4.7 2.6 0 4.8-2.1 4.8-4.7 0-2.7-2.2-4.8-4.8-4.8-2.6 0-4.7 2.1-4.7 4.8z"/>
						<path id="&lt;Path&gt;" class="s16" d="m1182.2 1128.3c0.6-23 4-61.7 8.1-89.6 1.3-22 26.3-133.6 26.3-133.6 99.8-0.5 122.3-17.3 122.3-17.3 26.7 45.4 45.1 96.9 55.8 148.4 6 28.9 8.9 55.2 8 84.3-1.2 38.7-2.7 77.3-5.4 115.9-0.5 6.8-4.2 76.2-7.4 76.5 0 0-167.4 17.4-196.5-58.3-6.5-46-12.1-95.7-11.2-126.3z"/>
						<path id="&lt;Path&gt;" class="s7" d="m1342.9 904.8c0 0-104.1 32.1-126.3 0.3-10.1-14.5-32.4-86.9-39.3-133.2 16.6-39.5 53.8-111.4 53.8-111.4 5.4-1.4 13.4-1.7 13.4-1.7-13.4 50.4 4.8 62.2 4.8 62.2 55.5 1.6 69.1-42.5 69.1-42.5l13.4 8.4c0 0-41.4 85.8 38.4 125.1 0 0 1.9 92-27.3 92.8z"/>
						<g id="&lt;Group&gt;">
							<path id="&lt;Path&gt;" class="s4" d="m1326.5 746.6c-3.3 23.4 13.1 45 36.5 48.3 23.4 3.2 85.4-2.8 72.2-22.4-26.1-38.5-42.1-58.1-65.6-61.3-23.4-3.3-39.9 12-43.1 35.4z"/>
							<path id="&lt;Path&gt;" class="s4" d="m1347.6 779.8l18.1-39.3 44.3-2.5c0 0 99 101.7 110.9 132.6 12.7 32.9-14.7 21.4-26.1 18 0 0-134.9-84.2-147.2-108.8z"/>
							<path id="&lt;Path&gt;" class="s4" d="m1522.5 889c0 0-46.2 71.8-94.1 116.1 0 0-21.3-1.4-15-13.2 10.7-20.1 54.6-114.2 65.4-134.4 6.2-11.3 43.7 31.5 43.7 31.5z"/>
							<path id="&lt;Path&gt;" class="s4" d="m1412.8 991.3l-24.1 7.8-11.2-13.5c0.7 15.4-3.9 26.2-3.9 26.2-13.4 15.3-21.4 27.2-21.4 27.2-5.3 5.2 0.9 7.8 0.9 7.8 10.1-3.5 28.9-19.2 28.9-19.2-9.3 10.3-27.2 25.3-27.2 25.3-3.5 5 2.8 6.3 2.8 6.3 14.7-0.9 30.9-23.4 30.9-23.4-5.9 8.7-22.9 24-22.9 24-0.6 4.4 1.9 4 1.9 4 11.7 1.1 27.3-20.5 27.3-20.5l-6.1 7.9c-9.2 10.2-0.3 10.9-0.3 10.9l5.6-4.6c17-14.2 23.1-31.7 23.1-31.7l10.8-21.3z"/>
						</g>
					</g>
				</g>
				<path id="&lt;Path&gt;" class="s0" d="m1243.7 509.5c33.1 18.2 51.7 34.8 43.1 75.1-7.7 36.3-10.4 56.1 9.7 88.5 18.7 30.4 20.4 47.8 4.2 80.4-12.9 26.2-25.7 51.3 6.8 67 61.5 29.7 118.6-19 95.6-85.5-10.4-29.9-35.5-50.2-47.4-78.8-12.1-29.1-0.4-53.8 2.1-83.2 4.4-49.1-62.7-120.4-104.9-72.8-3.5 4-6.5 9-9.2 13.6z"/>
			</g>
		</g>
	</g>
</svg>