<svg version="1.2" xmlns="http://www.w3.org/2000/svg" viewBox="0 0 2240 2010" width="2240" height="2010">
	<title>6056251_57699-ai</title>
	<style>
		.s0 { fill: #9eacd4 } 
	</style>
	<g id="Capa 1">
		<g id="&lt;Group&gt;">
			<g id="&lt;Group&gt;">
				<path id="&lt;Path&gt;" class="s0" d="m736.3 1773.1c0 55.1-100.5 99.9-224.5 99.9-124.1 0-224.6-44.8-224.6-99.9 0-55.2 100.5-100 224.6-100 124 0 224.5 44.8 224.5 100z"/>
			</g>
			<g id="&lt;Group&gt;">
				<path id="&lt;Path&gt;" class="s0" d="m1538.2 1798.2c0 55.1-100.5 99.9-224.5 99.9-124 0-224.6-44.8-224.6-99.9 0-55.2 100.6-99.9 224.6-99.9 124 0 224.5 44.7 224.5 99.9z"/>
			</g>
			<g id="&lt;Group&gt;">
				<path id="&lt;Path&gt;" class="s0" d="m2017.2 1810.5c0 55.2-100.5 99.9-224.6 99.9-124 0-224.5-44.7-224.5-99.9 0-55.2 100.5-99.9 224.5-99.9 124.1 0 224.6 44.7 224.6 99.9z"/>
			</g>
		</g>
	</g>
</svg>