<svg version="1.2" xmlns="http://www.w3.org/2000/svg" viewBox="0 0 2240 2010" width="2240" height="2010">
	<title>6056251_57699-ai</title>
	<style>
		.s0 { fill: #9eacd4 } 
		.s1 { fill: #fffdf1 } 
		.s2 { fill: none;stroke: #fefefe;stroke-miterlimit:10;stroke-width: 13 } 
		.s3 { fill: none;stroke: #fefefe;stroke-miterlimit:10;stroke-width: 17 } 
		.s4 { fill: none;stroke: #fefefe;stroke-miterlimit:10;stroke-width: 14.6 } 
		.s5 { fill: none;stroke: #fefefe;stroke-miterlimit:10;stroke-width: 16.2 } 
		.s6 { fill: none;stroke: #fefefe;stroke-miterlimit:10;stroke-width: 14.1 } 
		.s7 { opacity: .6;fill: #fffdf1 } 
		.s8 { fill: #037ea2 } 
		.s9 { fill: #689ed4 } 
		.s10 { fill: #1b6daa } 
		.s11 { fill: #427ec0 } 
		.s12 { fill: #3a88c8 } 
		.s13 { fill: #15171b } 
		.s14 { fill: #07070b } 
		.s15 { fill: #2a8caf } 
		.s16 { fill: #f6a482 } 
		.s17 { fill: #131e34 } 
		.s18 { fill: #e69375 } 
		.s19 { fill: #54bd8a } 
		.s20 { fill: #f7a07c } 
		.s21 { fill: #5e2400 } 
		.s22 { fill: #ea8c70 } 
		.s23 { fill: #f7b68e } 
		.s24 { fill: #000000 } 
		.s25 { fill: #0b1429 } 
		.s26 { fill: #09b9c4 } 
		.s27 { fill: #3b2313 } 
		.s28 { fill: #e1866f } 
		.s29 { fill: #fefefe } 
		.s30 { fill: #3cbfc5 } 
		.s31 { fill: #3e1704 } 
		.s32 { fill: #551035 } 
		.s33 { fill: #6551a1 } 
		.s34 { fill: #112a66 } 
		.s35 { fill: #22376e } 
		.s36 { fill: #335094 } 
		.s37 { fill: #a4ddf6 } 
		.s38 { fill: none;stroke: #335094;stroke-miterlimit:10;stroke-width: .9 } 
		.s39 { fill: #cb4d7d } 
	</style>
	<g id="_Artboards_">
	</g>
	<g id="Capa 1">
		<g id="&lt;Group&gt;">
			<g id="&lt;Group&gt;">
				<g id="&lt;Group&gt;">
					<path id="&lt;Path&gt;" class="s0" d="m2239.8 2009.1h-2239.8v-2009.1h2239.8z"/>
				</g>
				<g id="&lt;Group&gt;">
					<g id="&lt;Group&gt;" style="opacity: .6">
						<path id="&lt;Path&gt;" class="s1" d="m2239.8 1343.8c-65.9 15.2-128.4 39.5-184 68.4-119.7 62.2-182.7 136.9-311.6 177-193.8 60.3-280.1 59.2-459.4 30.8-322.3-51.1-477-117.3-782.8-200.8-199.6-54.5-340.8-54.5-501.8 34.7v555.2h2239.6z"/>
					</g>
					<g id="&lt;Group&gt;">
						<path id="&lt;Path&gt;" class="s2" d="m1272.7 708h101"/>
						<path id="&lt;Path&gt;" class="s3" d="m351.3 150.9h172"/>
						<g id="&lt;Group&gt;">
							<path id="&lt;Path&gt;" class="s4" d="m1622.1 503.8h35.1"/>
							<path id="&lt;Path&gt;" class="s4" d="m1672.4 503.8h35.2"/>
							<path id="&lt;Path&gt;" class="s4" d="m1722.7 503.8h35.2"/>
						</g>
						<path id="&lt;Path&gt;" class="s5" d="m738.8 432.7c0 12.2-9.8 22.1-22 22.1-12.2 0-22.1-9.9-22.1-22.1 0-12.2 9.9-22 22.1-22 12.2 0 22 9.8 22 22z"/>
						<path id="&lt;Path&gt;" class="s6" d="m1263.5 225.2c0 10.6-8.6 19.2-19.2 19.2-10.6 0-19.2-8.6-19.2-19.2 0-10.6 8.6-19.2 19.2-19.2 10.6 0 19.2 8.6 19.2 19.2z"/>
					</g>
					<path id="&lt;Path&gt;" class="s7" d="m2092.3 324.3c5.4-8.4 8.5-18.3 8.5-29 0-29.4-23.9-53.4-53.4-53.4-11.8 0-22.8 4-31.6 10.5 0-1.2 0.1-2.4 0.1-3.7 0-29.4-23.9-53.4-53.4-53.4-8.6 0-16.8 2.2-24.1 5.8-9.3-29.1-36.5-50.2-68.8-50.2-39.8 0-72.2 32.3-72.2 72.2 0 7.8 1.3 15.3 3.5 22.3-5.8-2.2-12-3.5-18.6-3.5-29.5 0-53.4 24-53.4 53.4 0 10.7 3.2 20.6 8.6 29z"/>
					<path id="&lt;Path&gt;" class="s7" d="m437 432.7c4.1-6.3 6.5-13.8 6.5-21.9 0-22.4-18.1-40.6-40.5-40.6-9 0-17.3 3-24.1 8 0.1-0.9 0.2-1.8 0.2-2.8 0-22.4-18.2-40.5-40.6-40.5-6.5 0-12.8 1.6-18.3 4.4-7-22.1-27.7-38.1-52.2-38.1-30.2 0-54.8 24.5-54.8 54.8 0 5.9 1 11.5 2.7 16.8-4.4-1.6-9.2-2.6-14.1-2.6-22.4 0-40.6 18.2-40.6 40.6 0 8.1 2.4 15.6 6.5 21.9z"/>
					<g id="&lt;Group&gt;" style="opacity: .6">
						<path id="&lt;Path&gt;" class="s1" d="m1259.7 1698.3h-15.4v-392.9h15.4z"/>
						<path id="&lt;Path&gt;" class="s1" d="m1366.2 1140.4c3.4-6.8 5.4-14.3 5.4-22.4 0-27.4-22.2-49.5-49.6-49.5-1.1 0-2.2 0.1-3.4 0.2 6.1-8.3 9.8-18.4 9.8-29.4 0-27.4-22.2-49.6-49.6-49.6-9.9 0-19.1 3-26.8 8-7.7-5-16.9-8-26.8-8-27.4 0-49.5 22.2-49.5 49.6 0 11 3.6 21.1 9.7 29.4-1.2-0.1-2.3-0.2-3.4-0.2-27.4 0-49.6 22.1-49.6 49.5 0 8.1 2 15.6 5.4 22.4-27 8.6-46.6 33.9-46.6 63.7 0 37 30 67 67 67 7.2 0 14.1-1.1 20.6-3.3-2 5.4-3.1 11.3-3.1 17.3 0 27.4 22.1 49.6 49.5 49.6 9.9 0 19.1-3 26.8-8 7.7 5 16.9 8 26.8 8 27.4 0 49.6-22.2 49.6-49.6 0-6-1.2-11.9-3.2-17.3 6.5 2.2 13.4 3.3 20.6 3.3 37 0 67-30 67-67 0-29.8-19.6-55.1-46.6-63.7z"/>
					</g>
				</g>
			</g>
			<g id="&lt;Group&gt;">
				<path id="&lt;Path&gt;" class="s0" d="m736.3 1773.1c0 55.1-100.5 99.9-224.5 99.9-124.1 0-224.6-44.8-224.6-99.9 0-55.2 100.5-100 224.6-100 124 0 224.5 44.8 224.5 100z"/>
			</g>
			<g id="&lt;Group&gt;">
				<path id="&lt;Path&gt;" class="s0" d="m1538.2 1798.2c0 55.1-100.5 99.9-224.5 99.9-124 0-224.6-44.8-224.6-99.9 0-55.2 100.6-99.9 224.6-99.9 124 0 224.5 44.7 224.5 99.9z"/>
			</g>
			<g id="&lt;Group&gt;">
				<path id="&lt;Path&gt;" class="s0" d="m2017.2 1810.5c0 55.2-100.5 99.9-224.6 99.9-124 0-224.5-44.7-224.5-99.9 0-55.2 100.5-99.9 224.5-99.9 124.1 0 224.6 44.7 224.6 99.9z"/>
			</g>
			<g id="&lt;Group&gt;">
				<path id="&lt;Path&gt;" class="s8" d="m501.6 1418.1c19.9-92.9 25.8-308.1 25.8-308.1 0 0-15.9-21.2-73.3-24.9-57.6-3.7-53.6 31.7-53.3 27.1 0 0 0 152.3 26.4 302.2 0 0 40.9 28.3 74.4 3.7z"/>
				<path id="&lt;Path&gt;" class="s8" d="m401.4 1122.7c-5.7-38.4 6-77.2 12.1-116.1h174.8c11.2 37.3 22.8 75.6 22.8 75.6 0 0 7.5 88.1-67.4 98.7 0 0-130.5 22.6-142.3-58.2z"/>
				<g id="&lt;Group&gt;">
					<g id="&lt;Group&gt;">
						<path id="&lt;Path&gt;" class="s9" d="m573.3 584.1v242.2c0 7.8 5.3 9.3 5.3 9.3l210.5 88.1c9.4 1.6 8.4-7.4 8.4-7.4v-240c0-8.8-5.8-10.1-5.8-10.1l-209.7-87.8c0 0-8.7-3.6-8.7 5.7z"/>
					</g>
					<g id="&lt;Group&gt;">
						<path id="&lt;Path&gt;" class="s10" d="m833.6 897.5l-39.8 25.9c3.4-1.1 3.6-5.5 3.6-5.5l0.1-241.2 37.4-24.5v242c0 0 0.3 2.2-1.3 3.3z"/>
					</g>
					<g id="&lt;Group&gt;">
						<path id="&lt;Path&gt;" class="s11" d="m606.5 555.4c-13.1 8.9-18.5 12.5-22.6 15.3l-7.8 5.3c0 0-2.8 1.5-2.5 5.8 0 0 0.8-5.9 8.3-3.4l211.5 88.7c0 0 4.1 2.1 4.1 9.6l37.4-24.3c0-7.9-5.5-10.4-5.5-10.4l-209.9-88c0 0-6.2-3.2-13 1.4z"/>
					</g>
					<g id="&lt;Group&gt;">
						<path id="&lt;Path&gt;" class="s12" d="m829.9 642.3c0 0 4.8 1.7 4.8 9.3l-37.2 25.1c0-7.5-4.1-9.6-4.1-9.6z"/>
					</g>
				</g>
				<g id="&lt;Group&gt;">
					<g id="&lt;Group&gt;">
						<path id="&lt;Path&gt;" class="s13" d="m601.4 1799.7l-10-0.5c-3.4-0.6-3.3 4.8-3.8 5-10.4 4.1-19.7 7.3-23.6 7.4 0 0-18.4-2.4-20.4-7.9l2.6-34.2c20.5-1.8 42-5.7 42-5.7l45.1-6.4c21.7-2.2 25.7 5.6 25.7 5.6 0 0 13.3 19.9-57.6 36.7z"/>
					</g>
					<g id="&lt;Group&gt;">
						<path id="&lt;Path&gt;" class="s14" d="m574 1797.7c3.3-1.5 8.2-3.2 11.7-3.8 22.2-3.9 44-6.1 62.5-20.4 4.6-3.5 7.8-7.8 8.1-13 2 1.3 2.7 2.5 2.7 2.5 0 0 13.3 19.9-57.6 36.7l-10-0.5c-3.4-0.6-3.3 4.8-3.8 5-10.4 4.1-19.7 7.3-23.6 7.4 0 0-18.4-2.4-20.4-7.9l0.6-8.4c7.4 4.2 20.3 6.8 29.8 2.4z"/>
					</g>
				</g>
				<g id="&lt;Group&gt;">
					<g id="&lt;Group&gt;">
						<path id="&lt;Path&gt;" class="s13" d="m474.2 1780.4l-9.9-0.6c-3.4-0.5-3.4 4.8-3.8 5-10.5 4.1-19.7 7.3-23.6 7.5 0 0-18.5-2.4-20.4-8l2.6-34.2c20.5-1.7 41.9-5.7 41.9-5.7l45.2-6.3c21.7-2.3 25.6 5.6 25.6 5.6 0 0 13.3 19.8-57.6 36.7z"/>
					</g>
					<g id="&lt;Group&gt;">
						<path id="&lt;Path&gt;" class="s14" d="m446.8 1778.4c3.4-1.5 8.2-3.2 11.7-3.8 22.3-3.9 44.1-6.1 62.6-20.4 4.5-3.5 7.7-7.9 8-13.1 2.1 1.4 2.7 2.6 2.7 2.6 0 0 13.3 19.8-57.6 36.7l-9.9-0.6c-3.4-0.5-3.4 4.8-3.8 5-10.5 4.1-19.7 7.3-23.6 7.5 0 0-18.5-2.4-20.4-8l0.6-8.3c7.3 4.2 20.3 6.8 29.7 2.4z"/>
					</g>
				</g>
				<path id="&lt;Path&gt;" class="s8" d="m470.4 1752.6c7.4-8.8 31.7-332.9 31.7-332.9 4-49.9-78.9-29-78.9-29-12 49.7-10.1 59-13.9 120.6-1.5 24.3 2.4 225.6 1.5 241.1 0 0 38.5 25.5 59.6 0.2z"/>
				<path id="&lt;Path&gt;" class="s15" d="m534 1051.7c0 0 49.7 84.7 19.1 140.1-30.6 55.3-159.6-4.9-151.7-69.1 8.7-70.3 72.4-100.7 132.6-71z"/>
				<path id="&lt;Path&gt;" class="s16" d="m569.7 943.7c8.1 28.7 41.4 138.5 41.4 138.5-91.4 86.1-209.3 17.8-210.4 4.8-1.5-15.6 15.9-75.1 19.1-139.3 0 0 32.5-50.1 149.9-4z"/>
				<path id="&lt;Path&gt;" class="s17" d=""/>
				<path id="&lt;Path&gt;" class="s15" d="m679.6 1402c-9.7-94.5-77.1-335.7-77.1-335.7 0 0-19.6-18.1-75.4-3.9-55.9 14.2-61.9 86.9-63.1 82.4 0 0 64.9 152.7 151.2 287.2 0 0 41.7 21.3 64.4-30z"/>
				<path id="&lt;Path&gt;" class="s15" d="m601.9 1765.8c3.6-10.9 77.3-352 77.3-352 0.6-46.2-69.7-31.8-69.7-31.8-13.2 27.3-28.6 60.5-36.8 121.6-3.2 24.2-24.7 251.4-26.7 266.7 0 0 37.6 14 55.9-4.5z"/>
				<g id="&lt;Group&gt;">
					<path id="&lt;Path&gt;" class="s18" d="m354 724.2c0 0-9.1 152.1-3.3 213.5 0 0 0 27.9 49.2 41.9 0 0 17.8-169.4 32.4-245 0 0-29-56.1-78.3-10.4z"/>
					<path id="&lt;Path&gt;" class="s18" d="m408.9 763.5c-20.2 8.5-43.5-0.8-52.1-20.8-8.6-20 0.8-43.1 20.9-51.6 20.2-8.6 43.5 0.7 52.1 20.7 8.6 20-0.8 43.1-20.9 51.7z"/>
				</g>
				<path id="&lt;Path&gt;" class="s19" d="m388.2 681.1c0 0-35.9 8.3-37.8 50l-5.8 149.9c0 0 35.9 23.9 82.4 19.8 0 0 53.6-200.2-38.8-219.7z"/>
				<path id="&lt;Path&gt;" class="s16" d=""/>
				<path id="&lt;Path&gt;" class="s16" d="m523.9 585.9c0 0 0.3 53.6 5 106.9l-70.6-11.7c0 0 10.3-24.4-4.3-46.1z"/>
				<path id="&lt;Path&gt;" class="s16" d="m388.2 681.1c-17.7 13-19.7 44-13.4 63.3 7.3 22.3 10.2 50.7 17.4 82.8 9.9 43.6 16.6 77.2 27.6 120.5 9.1 35.8 153 6.9 153 6.9l51.5-176.2c0 0 8.9-46-32.8-61.3 0 0-43.9-23.7-76-34.5-28.4-9.7-38.7-10.6-67.8-8.8 0 0-39 1.5-59.5 7.3z"/>
				<path id="&lt;Path&gt;" class="s15" d="m599 1047.3c0 0 30.6 49.4 0 104.7-30.6 55.4-124.1 35.2-124.3-36.5-0.3-70.9 64.2-98 124.3-68.2z"/>
				<path id="&lt;Path&gt;" class="s19" d="m447.7 673.8c0 0-39 1.5-59.5 7.3-18.4 13.5-18.1 40-14.5 60 6.8 38.4 13.7 77.1 17.2 115.9 1.6 17.2 5.9 52.1 7.2 69.3 1.2 16.7 6.5 25.9 23.6 34.7 13 6.8 22.6 1.4 36.8 1.8 35.9 1 71.4-2.9 107.1-7.3 1.5-0.2 24-1.8 24.3-3.5l34.4-173.6c0 0 8.9-46-32.8-61.3 0 0-29.3-18.3-61.4-29.2 0 0-55.9 1.4-82.4-14.1z"/>
				<g id="&lt;Group&gt;">
					<path id="&lt;Path&gt;" class="s20" d="m547.7 647.8l3-11.7c0 0 7.1-42.9 7.1-42.9 0.9-5.3 0.2-12.4-1.3-17.6-1.7-5.7-3-11.8-2.2-18.1 4.1-30.7-13.1-46-13.1-46-20-26.3-61.7-22.6-61.7-22.6-21.6 3.3-40.4 12.2-51.2 31.9-9.7 17.8-15 39.6-9.3 59.6 6.4 21.9 18.6 38.9 34.8 54.4 10.4 10 21 11.2 34.6 16.2 9.5 3.4 27.6 5.4 37.6 5.5 5.3 0 19.9-2.1 21.7-8.7z"/>
				</g>
				<path id="&lt;Path&gt;" class="s21" d="m539.4 529.3l-6.6 26.6c-7.6 3.4-10.6 6.3-9.6 16.2l2.4 22-5.9 2.3c0.4-8.8-11.8-8.9-11.8-8.9-8.9-0.5-10.4 7.1-9.9 14.4 1.3 19.1-5.6 49.3-21.6 54.6-6.3 2.1-18.1 4.3-20.1-4.3-2.5-10.4-22.2-31.1-22.2-31.1-23.8-23-29.7-62.2-18.5-92.2 3.4-9.1 10.1-18.6 17-25.2 14.9-14.2 33.5-21.1 53.1-23.7 0 0 27.1-3.3 42.3 7.4 9.5 6.6 15.6 12.7 19.7 18 0 0 5.7 12.2-8.3 23.9z"/>
				<path id="&lt;Path&gt;" class="s21" d="m558.2 488.7c-1-6.3-9.9-15.3-14.1-18.9-6.3-5.2-14.2 0.9-18.9 5.3-3.8 3.6-7 3.5-11.8 0.9-4.5-2.4-8.2-6.8-13.2-8.8-4.7-1.8-10-0.9-14.9-0.1-9.9 1.5-16.6 11.8-26.4 13.7-6.3 1.3-7.2 1.8-10.4 6.8-2.5 3.9-14.8-1.2-18.2 2.7-5 5.9-22.4 13.3-20.2 21.2-16.8 22 0.3 47.6 3.4 49.8 29.2 20.4 74-4.6 103.1-19 7.7-3.8 15-8.6 22-13.6 3.5-2.5 7.2-4.9 10.5-7.8 5.9-5.4 10.7-23.1 9.1-32.2z"/>
				<g id="&lt;Group&gt;">
					<g id="&lt;Group&gt;">
						<g id="&lt;Group&gt;">
							<g id="&lt;Group&gt;">
								<g id="&lt;Group&gt;">
									<path id="&lt;Path&gt;" class="s20" d="m517.6 615.1c-1.7 1.5-4 2.5-6.9 2.6-7.9 0.4-14.9-6.6-15.7-15.6-0.8-8.9 5-16.5 12.9-16.9 3.8-0.2 7.3 1.3 10.1 3.8 4 3.8 4.6 11.1 4.1 16.2-0.5 4.1-1.9 7.6-4.5 9.9z"/>
								</g>
							</g>
						</g>
					</g>
				</g>
				<g id="&lt;Group&gt;">
					<g id="&lt;Group&gt;">
						<g id="&lt;Group&gt;">
							<path id="&lt;Path&gt;" class="s22" d="m511.6 593.4c-0.7-4.7-10 0.4-8.4 3 1 1.4 2.7 2.4 4.1 3.4 1.9 1.4 2.9 2.7 3.3 5 0 0.3 0.1 1.1-0.1 1.3-1.2 0.9-5.6-3.4-6.5-4.3-1.9-1.8-2.3-5.1-1.7-7.5 0.8-2.6 2.4-3.9 5.1-3.9 2.1 0 4.3 0 4.4 2.7 0 0.1-0.1 0.5-0.2 0.3z"/>
						</g>
					</g>
					<g id="&lt;Group&gt;">
						<g id="&lt;Group&gt;">
							<path id="&lt;Path&gt;" class="s22" d="m508.9 598.5c0.9-1.1 1.9-0.3 3 0.3 1 0.7 1.6 1.6 1.9 2.7 0.7 2.4 0.6 5.7-0.7 8-1 1.8-2.9 2.9-5 3-2.8 0.1-3.9-2.4-4.1-4.8-0.1-0.6-0.2-2.2 0.4-2.6 0.6-0.5 1.2 0.5 1.7 1 0.7 0.5 1.6 0.7 2.5 0.7 1.6 0.1 3.2-0.9 4.1-2.2q0.3-0.3 0.4-0.7 0.2 2.4-0.2 1.1-0.2-0.6-0.6-1.1c-0.7-1.1-1.9-1.8-2.7-2.8-0.4-0.4-1.2-2.1-0.7-2.6z"/>
						</g>
					</g>
				</g>
				<g id="&lt;Group&gt;">
					<path id="&lt;Path&gt;" class="s16" d="m823.5 813.7c-3 6.9-6.3 13.3-11.7 18.4-6.1 5.8-17.3 5.3-21.2 9.5-6.8 7.3-26.9 40.3 6.2 37.4 7.7-0.7 34.3-3 37.7-16 5-19.2 3.8-27.5-5.3-41.8z"/>
				</g>
				<g id="&lt;Group&gt;">
					<g id="&lt;Group&gt;">
						<path id="&lt;Path&gt;" class="s23" d=""/>
					</g>
					<g id="&lt;Group&gt;">
						<path id="&lt;Path&gt;" class="s16" d="m631.5 953.1l166.6-101c21.5 3.9 19.3 13.6 19.3 13.6l-99.3 95.4c-41.4 41.3-73.1 48.8-73.1 48.8 0 0-27.2 12.8-33.5-27.3 0 0-2.6-18.1 20-29.5z"/>
					</g>
				</g>
				<path id="&lt;Path&gt;" class="s16" d="m550.2 786.5c11.9 27.3 50.5 181.1 65.2 203.1 3.9 5.8 41 21.3 51.7-13.5-15.8-140.9-39.8-226.8-39.8-226.8 0 0-37.6-34.4-70.2-5.7 0 0-15.3 23.9-6.9 42.9z"/>
				<path id="&lt;Path&gt;" class="s16" d="m554.3 751.1c-13.2 20.6-7.2 47.9 13.3 61.1 20.6 13.2 47.9 7.3 61.1-13.3 13.2-20.6 7.3-47.9-13.3-61.1-20.5-13.2-47.9-7.3-61.1 13.3z"/>
				<path id="&lt;Path&gt;" class="s19" d="m543.6 785.1l24.9 146.7c48.2 8.9 92.2-26.6 92.2-26.6l-20.6-130.9c0 0-15-52.2-58.5-57.2 0 0-49.5 9.4-38 68z"/>
				<path id="&lt;Path&gt;" class="s19" d="m597 916.1c8.1 28.8 22.2 206.9 22.2 206.9-21.4 57.2-225.6 8.9-226.8-4.1-1.4-15.6 2.8-125.3 6-189.5 0 0 81.3-59.4 198.6-13.3z"/>
				<path id="&lt;Path&gt;" class="s16" d="m790.5 845.5c0 0 7.6 10.7 14.1-3.7l-0.7-19c0 0 0.7-5.3-3.9-6.6 0 0-3.2 0-3.9 5.5z"/>
			</g>
			<g id="&lt;Group&gt;">
				<g id="&lt;Group&gt;">
					<g id="&lt;Group&gt;">
						<g id="&lt;Group&gt;">
							<g id="&lt;Group&gt;">
								<path id="&lt;Path&gt;" class="s13" d="m1712.1 1788.7c-15.5 15.6-41 23.9-41 23.9-21.5 5.5-34.2-8.8-34.2-8.8-4.6-6.5 1-10 1-10 45.4-34.5 59-44.3 59-44.3h41.7c2 16.7 0.9 23.5 0.9 23.5-3.7 4.9-11.3 11.9-22.9 13.8-0.9 0.2-2.5-1.1-3.3-0.7z"/>
							</g>
						</g>
						<g id="&lt;Group&gt;">
							<path id="&lt;Path&gt;" class="s24" d="m1637.7 1793.9c0.2 1 0.4 1.9 0.9 2.9 3.5 7.5 13.3 10.6 21.1 10.5 9.3-0.1 17.8-4.7 25.9-8.8 7.9-4 14.7-9 21.5-14.6 4.7-3.9 10.7-5.7 16.3-8.1 6.2-2.7 10.9-7 16.3-11 0.1 4.5-0.2 8.2-0.2 8.2-3.7 4.9-11.3 11.9-22.9 13.8-0.9 0.2-2.5-1.1-3.3-0.7l-1.2 2.6c-15.5 15.6-41 23.9-41 23.9-21.5 5.5-34.2-8.8-34.2-8.8-4.1-5.8-0.1-9.2 0.8-9.9z"/>
						</g>
					</g>
					<g id="&lt;Group&gt;">
						<path id="&lt;Path&gt;" class="s18" d="m1743.2 1411.5c-46.4 51.1-64.8-3-64.8-3l-5.7-314.5c-0.6 4.7-2.1-31.7 56.4-23.9 58.3 7.9 73.1 30.6 73.1 30.6 0 0-32.1 217.3-59 310.8z"/>
						<path id="&lt;Path&gt;" class="s18" d="m1678.1 1404.5c0 0 23.6 331.3 25.5 342.9 0 0 28.6 6.3 28.7-0.3 0.3-15.8 33-209.7 33.4-234.6 1-63.1-15.2-75.1-31.5-117.6 0 0-56.2-41.5-56.1 9.6z"/>
					</g>
					<g id="&lt;Group&gt;">
						<g id="&lt;Group&gt;">
							<path id="&lt;Path&gt;" class="s25" d="m1753.9 1413.6c26.9-93.5 48.3-312.9 48.3-312.9 0 0-14.8-22.7-73.1-30.6-58.5-7.8-57 28.6-56.4 23.9 0 0-10.8 155.5 5.4 310.5 0 0 39.8 31.8 75.8 9.1z"/>
							<path id="&lt;Path&gt;" class="s25" d="m1743.2 1411.5c-46.4 51.1-64.8-3-64.8-3"/>
							<path id="&lt;Path&gt;" class="s25" d="m1687.4 1746.6c-6.8-9.6-9.3-342.1-9.3-342.1-0.1-51.1 62.9-27.5 62.9-27.5 16.3 42.5 25.7 72.4 24.7 135.5-0.4 24.9-17.1 222.8-17.4 238.7 0 0-41.3 22.9-60.9-4.6z"/>
						</g>
					</g>
					<path id="&lt;Path&gt;" class="s25" d="m1799.8 1028.3c0 0 31.4 50.6 0 107.3-31.3 56.7-127 36-127.3-37.4-0.2-72.6 65.8-100.3 127.3-69.9z"/>
					<path id="&lt;Path&gt;" class="s16" d="m1845.5 925.3c8.3 29.4 42.4 141.7 42.4 141.7-122.1 146.2-214.1 18.3-215.4 5-1.4-16 16.4-76.9 19.6-142.6 0 0 33.3-51.3 153.4-4.1z"/>
					<path id="&lt;Path&gt;" class="s25" d="m1673.3 1108.5c-5.8-39.3 6.2-79 12.3-118.8h179c11.4 38.1 23.3 77.3 23.3 77.3 0 0 7.7 90.2-68.9 101.1 0 0-133.6 23.1-145.7-59.6z"/>
					<g id="&lt;Group&gt;">
						<path id="&lt;Path&gt;" class="s16" d="m1876.8 1418.4c-38.2 57.4-64.4 6.6-64.4 6.6l-62.1-306.4c0.1 4.7 1.9-39.9 60.9-40.8 58.9-0.8 76.9 19.5 76.9 19.5 0 0 1.5 224.6-11.3 321.1z"/>
						<path id="&lt;Path&gt;" class="s16" d="m1811.5 1421.1c0 0 61.4 349.1 65 360.3 0 0 29.3 2 28.4-4.5-2-15.8 3.2-235.9 0-260.6-8.3-62.6-17-73.3-39.4-113 0 0-61.7-32.8-54 17.8z"/>
					</g>
					<g id="&lt;Group&gt;">
						<g id="&lt;Group&gt;">
							<path id="&lt;Path&gt;" class="s13" d="m1873.8 1774.6l-17.3 52.8c0 0 3.5 47.1 41.4 17.9l11.3-10.9c5.7-4.9 4-11.6 4-11.6l-3.3-20.2-4.1-28c0 0-23.7-16.1-32 0z"/>
						</g>
						<g id="&lt;Group&gt;">
							<path id="&lt;Path&gt;" class="s24" d="m1897.9 1838.6l11.3-11c2.2-1.9 3.3-4 3.8-6l0.2 1.2c0 0 1.7 6.7-4 11.6l-11.3 10.9c-37.9 29.2-41.4-17.9-41.4-17.9l0.6-2.1c2.2 11.1 10.5 36.7 40.8 13.3z"/>
						</g>
					</g>
					<g id="&lt;Group&gt;">
						<g id="&lt;Group&gt;">
							<path id="&lt;Path&gt;" class="s17" d=""/>
							<path id="&lt;Path&gt;" class="s17" d="m1885 1419.5c12.8-96.4 2.9-352.5 2.9-352.5 0 0-15.3-22.7-74.1-21.8-59.1 0.8-71.2 68-71.3 63.3 0 0 49.7 262.3 71.3 325.6 0 0 36.4 31.1 71.2-14.6z"/>
							<path id="&lt;Path&gt;" class="s17" d="m1862 1778.2c-3.6-11.2-51.9-359.4-51.9-359.4-0.6-47.3 61.6-35.7 61.6-35.7 22.4 39.7 27.6 58.2 35.9 120.8 3.2 24.7 9.6 253.3 11.6 269.1 0 0-26.1 18.1-57.2 5.2z"/>
						</g>
					</g>
					<g id="&lt;Group&gt;">
						<path id="&lt;Path&gt;" class="s18" d="m1711 703.7c0 0-21.5 152.8-42.6 212.3 0 0-34.9 7.5-46.2-12.2 0 0 3.9-130.7 8.4-209.4 0 0 42.9-48.3 80.4 9.3z"/>
						<path id="&lt;Path&gt;" class="s18" d="m1622.2 903.8c0 0-7.4 126-14.8 175.4 0 0 6.1 13.8 14.4 3.6 13.8-17.1 55-172.3 47.1-182-36.8-45.3-46.7 3-46.7 3z"/>
						<path id="&lt;Path&gt;" class="s18" d="m1646.7 728.9c17.8 13.6 43.3 10.2 56.9-7.5 13.5-17.6 10-42.9-7.9-56.5-17.9-13.5-43.3-10.1-56.9 7.5-13.5 17.7-10 43 7.9 56.5z"/>
						<g id="&lt;Group&gt;">
							<path id="&lt;Path&gt;" class="s18" d="m1621.1 1104.6l-6.1 17.5 6 25.9c0 0-5.2 3.1-8.6-5.6l-5.6-21.5 5.1-20.1z"/>
							<path id="&lt;Path&gt;" class="s18" d="m1615.1 1109.8l-7 17.2 4.5 26.1c0 0-5.3 2.9-8.3-6.1l-4.4-21.7 6.3-19.8z"/>
							<path id="&lt;Path&gt;" class="s18" d="m1594.2 1110l7.2-20.3 8.5-25.4 16.7 0.8 0.4 28.5-1.3 14.7-2.1 19.9-0.3 6.5c0 0-5.4 0.7-7.5-10.1l-0.6-19.3-9.8 13.2 1.1 26.7c0 0-4 13.1-7.1 7.3l-6.7-38.4z"/>
						</g>
					</g>
					<path id="&lt;Path&gt;" class="s26" d="m1659.8 656.5c0 0-36.8 8.5-38.7 51.2l-6 153.4c0 0 36.8 24.4 84.4 20.3 0 0 54.9-205-39.7-224.9z"/>
					<path id="&lt;Path&gt;" class="s27" d="m1687.6 525.8c-4.7-4.2-13.9-17-13.5-23.5 0.2-2 2.1-3.6 2.1-6 0-2.6-1.1-3.5-2-5.6-1.9-4.3-2.3-6.7-2.3-11.8 0-3.6-0.7-10.6 1.7-13.4 3.7-4.3 10.9-0.8 14.7 1.5 7.9 4.7 12.4 12.3 20.6 16.9 6.9 3.8 9.2 8.4 13.1 15.1 4.9 8.5 9 24.1-1.5 30.5-9.7 5.9-24.9 3.4-32.9-3.7z"/>
					<path id="&lt;Path&gt;" class="s16" d=""/>
					<path id="&lt;Path&gt;" class="s20" d="m1784.3 614.2c0 0 7.2-13.8 23-40.4 0 0 33.8-34.7 14.9-78.3 0 0-10.4-36.4-74.2-31.1 0 0-6.1 100.3 36.3 149.8z"/>
					<path id="&lt;Path&gt;" class="s16" d="m1786.8 557.4c0 0-10.7 100 12.1 107.6l-81.5-4.9c0 0 12.8-30.2-2.1-52.5z"/>
					<path id="&lt;Path&gt;" class="s28" d="m1721.8 642.7c1.4-22.9-1.5-27.5-6.5-35.1l71.5-50.2c0 0-3.5 32.3-2.3 61.6-20.7 19.6-37.8 24.2-62.7 23.7z"/>
					<path id="&lt;Path&gt;" class="s16" d="m1659.8 656.5c-18.1 13.3-20.2 45-13.7 64.8 7.4 22.8 10.4 51.8 17.8 84.8 10.1 44.6 17 79 28.2 123.3 9.3 36.6 156.6 7.1 156.6 7.1l52.8-180.4c0 0 9.1-47.1-33.6-62.7 0 0-44.9-24.3-77.8-35.4-29.1-9.9-39.6-10.8-69.4-9 0 0-40 1.5-60.9 7.5z"/>
					<g id="&lt;Group&gt;">
						<path id="&lt;Path&gt;" class="s20" d="m1698.7 621.9l-3.4-11.3c0 0-8.6-41.9-8.6-41.9-1.1-5.2-0.7-12.1 0.7-17.3 1.4-5.7 2.5-11.7 1.4-17.9-5.1-30 11.2-45.6 11.2-45.6 18.7-26.5 59.7-24.4 59.7-24.4 50.6 5 52.4 54.3 52.4 54.3 6.6 33.1-20.7 58.9-20.8 59-2.2 2.1-1.7 12.9-2.4 15.9-3.4 12.9-16.2 20.3-27.6 25.2-12.4 5.5-27.4 11.2-41 11.7-5.2 0.3-19.7-1.2-21.6-7.7z"/>
					</g>
					<path id="&lt;Path&gt;" class="s27" d="m1770.1 517.9c-15.2-18.5-44.4-1.7-63.2-13.2-8.8-5.3-8.6-14.9-20.1-14.9-24.5-0.1-21.6-26.3-8-34 2.8-0.2 5.6 0 8.3 0.3 6.7 0.8 11.1 3.8 18 1.3 7.1-2.6 13.2-7.4 20-10.8 8.7-4.4 17.6-10.1 27.6-10.6 12.3-0.6 16.2 8.4 25.3 14.3 6.1 4 13.6 3.5 20.3 5.9 10 3.6 18.9 9.8 28 15.2 6.4 3.7 15.1 8.7 14.2 17.4-0.9 8.1-9.2 10-6.7 18.9 4.4 15.4 1.3 31.3-4.2 45.9-3.4 9-6.7 18.1-11.9 26.2-5.3 8.2-12.2 15.2-19.6 21.6-2.5 2.2-10.6 8.1-13.8 12.8-0.5-20.1 3.5-18.5-1.7-28.5-2.1-3.9 0.2-7.2 1.6-11.1 1.5-3.8 4.8-7 4.3-11.2-2.6 0.8-5.1 1.2-6.5 0-2.5-2.1-0.4-9.1-0.9-11.9-1.4-9.2-2.7-19.3-7.2-27.7q-1.8-3.4-3.8-5.9z"/>
					<g id="&lt;Group&gt;">
						<g id="&lt;Group&gt;">
							<g id="&lt;Group&gt;">
								<g id="&lt;Group&gt;">
									<g id="&lt;Group&gt;">
										<g id="&lt;Group&gt;">
											<path id="&lt;Path&gt;" class="s20" d="m1783.4 585.8c1.7 1.6 4 2.7 7 3 8.1 0.9 15.6-5.8 16.9-15 1.3-9.1-4.2-17.2-12.2-18-3.8-0.4-7.5 0.9-10.5 3.3-4.4 3.6-5.4 11-5.1 16.3 0.2 4.2 1.4 7.9 3.9 10.4z"/>
										</g>
									</g>
								</g>
							</g>
						</g>
						<g id="&lt;Group&gt;">
							<g id="&lt;Group&gt;">
								<g id="&lt;Group&gt;">
									<path id="&lt;Path&gt;" class="s22" d="m1790.8 563.9c1.1-4.8 10.2 1 8.4 3.5-1 1.5-2.8 2.4-4.3 3.4-2 1.2-3.1 2.5-3.6 4.8-0.1 0.3-0.3 1.1 0 1.4 1.2 1 5.8-3.2 6.9-4.1 2-1.7 2.6-5 2.1-7.5-0.6-2.7-2.2-4.1-4.9-4.3-2.2-0.1-4.5-0.2-4.7 2.5 0 0.1 0.1 0.5 0.1 0.3z"/>
								</g>
							</g>
							<g id="&lt;Group&gt;">
								<g id="&lt;Group&gt;">
									<path id="&lt;Path&gt;" class="s22" d="m1793.3 569.3c-0.9-1.2-1.9-0.5-3.1 0.2-1 0.5-1.7 1.5-2 2.6-0.9 2.4-1 5.8 0.2 8.2 1 1.9 2.8 3.2 4.9 3.4 2.9 0.2 4.1-2.3 4.5-4.7 0.1-0.7 0.4-2.2-0.2-2.7-0.7-0.5-1.3 0.5-1.8 0.9-0.8 0.5-1.7 0.6-2.6 0.6-1.7 0-3.2-1.1-4.1-2.4-0.2-0.3-0.3-0.6-0.4-0.9q-0.3 2.5 0.1 1.2 0.3-0.6 0.7-1.1c0.8-1.1 2.1-1.7 3-2.7 0.4-0.4 1.3-2.1 0.8-2.6z"/>
								</g>
							</g>
						</g>
					</g>
					<g id="&lt;Group&gt;">
						<path id="&lt;Path&gt;" class="s22" d="m1713.2 565.5l13.8 5.3c0 0-18.6 1.2-19.3-4.2 0 0 2.8-10.6 5.9-20.6 0 0-2.4 18.7-0.4 19.5z"/>
					</g>
					<g id="&lt;Group&gt;">
						<path id="&lt;Path&gt;" class="s27" d="m1737.3 546c0 2.9 1.6 5.3 3.6 5.3 1.9 0 3.5-2.4 3.5-5.3 0-2.9-1.6-5.3-3.5-5.3-2 0-3.6 2.4-3.6 5.3z"/>
						<path id="&lt;Path&gt;" class="s27" d="m1697.5 541.6c0 2.9 1.6 5.3 3.6 5.3 2 0 3.6-2.4 3.6-5.3 0-2.9-1.6-5.3-3.6-5.3-2 0-3.6 2.4-3.6 5.3z"/>
						<path id="&lt;Path&gt;" class="s27" d="m1733.6 535.8c-1.3 0.3-1.6-1.5-1.6-1.5-0.5-1.6 0-3.1 0-3.1 0.6-1.2 1.6-1.5 1.6-1.5 3.3-0.5 9.7 0.3 15.2 2 3 0.9 7.9 3.1 8.2 5.9 0.1 0.8 0.2 2.3-0.7 2.5 0 0-10.4-3.2-22.7-4.3z"/>
						<path id="&lt;Path&gt;" class="s27" d="m1688.3 531.3c3.6 0 10 0.4 17.8 1.8 1.2 0.6 1.9-0.9 1.9-0.9 0.9-1.6 0.8-3 0.8-3.1-0.2-1.2-1-1.9-1-1.9-3.1-1.3-7.5-2.1-13.2-2-1.7 0-4.7 0.2-6.6 0.9 0 0-0.4 1 0.3 5.2z"/>
					</g>
					<g id="&lt;Group&gt;">
						<path id="&lt;Path&gt;" class="s29" d="m1705.5 582.3c-1.1 0-1.7 0.5-1.3 1.3 0 0 5 9.4 13.7 10.4 8.6 1.1 15.7-6.8 15.7-6.8 0.7-0.8 0.1-1.5-1.3-1.7 0 0-15-1.9-26.8-3.2z"/>
					</g>
					<path id="&lt;Path&gt;" class="s17" d="m1875.6 1031.3c0 0 31.3 50.6 0 107.3-31.4 56.7-127 36-127.3-37.4-0.3-72.6 65.7-100.3 127.3-69.9z"/>
					<path id="&lt;Path&gt;" class="s30" d="m1720.7 649c0 0-40 1.5-60.9 7.5-18.1 13.3-20.2 45-13.7 64.8 7.4 22.8 10.4 51.8 17.8 84.8 10.1 44.6 9.2 79.3 20.5 123.6 9.3 36.7 181.8 4.1 181.8 4.1l35.3-177.7c0 0 9.1-47.1-33.6-62.7 0 0-42.9-23.6-75.8-34.7 0 0 5.2 34.7-51.4 25.1 0 0-34.5-8.3-20-34.8z"/>
					<path id="&lt;Path&gt;" class="s30" d="m1866.2 933.8c8.3 29.4 25.3 122.5 25.3 122.5-22.4 92.9-228.5 26-229.7 12.7-1.4-15.9 16.5-85.9 19.7-151.6 0 0 64.6-30.8 184.7 16.4z"/>
					<path id="&lt;Path&gt;" class="s16" d="m1825.9 769.7c20.1 22.9 92 127.8 113.2 144.6 5.6 4.5 53.8 24.9 53.3-12.4-59.5-132.3-103.1-192.6-103.1-192.6 0 0-47.4-21.7-70.2 16.5 0 0-7.4 28.1 6.8 43.9z"/>
					<path id="&lt;Path&gt;" class="s16" d="m1810.3 736.1c-4.4 26.2 13.3 51.1 39.5 55.5 26.3 4.5 51.2-13.2 55.6-39.5 4.4-26.2-13.3-51.1-39.5-55.5-26.3-4.5-51.2 13.2-55.6 39.5z"/>
					<path id="&lt;Path&gt;" class="s30" d="m1852.3 685.2c0 0 40 15.5 58.3 45.4l47.7 73.8c0 0-19.5 55.8-68.2 67.4l-76.3-92.8c0 0-43.2-54.4 38.5-93.8z"/>
					<g id="&lt;Group&gt;">
						<path id="&lt;Path&gt;" class="s16" d="m1935.3 905.3c0 0-24 70.1-46 174.4 0 0 4 18.4 16.6 10.3 12.7-8.1 88.9-164.2 86.5-178.4-6.1-36.6-57.1-6.3-57.1-6.3z"/>
						<path id="&lt;Path&gt;" class="s16" d="m1889.3 1079.7l-22.1 11.4-29.2 6.9c4.9 11.2 16.7 7.7 16.7 7.7-10.4 16.9-16.2 29.7-16.2 29.7-4.2 5.8 2.2 7.3 2.2 7.3 9.2-4.9 24.7-23.1 24.7-23.1-7.3 11.5-22.1 28.7-22.1 28.7-2.6 5.5 3.6 5.7 3.6 5.7 14.1-3.2 26.1-27.5 26.1-27.5-4.3 9.3-18.2 26.7-18.2 26.7 0.1 4.4 2.4 3.7 2.4 3.7 11.6-0.9 23-24.3 23-24.3l-4.5 8.7c-7.2 11.3 1.4 10.5 1.4 10.5l4.7-5.3c14.1-16.4 17.1-34.3 17.1-34.3l7-22.2z"/>
					</g>
					<path id="&lt;Path&gt;" class="s17" d="m1890.1 1141.5c0 0-24.2 0.8-40.9-32.3h-49.4l23.2 133h60.2z"/>
				</g>
			</g>
			<g id="&lt;Group&gt;">
				<path id="&lt;Path&gt;" class="s31" d="m1370.2 578.3c-4.3 31.3-15.3 39.5-5.5 72.2 9.1 30.2 34.1 52.3 37.4 84.9 2.4 23.1-3.6 60.8-18.9 79.4-22.3 27-73 11.8-102 7.1-32.9-5.3-106.3-7.6-126.6-40.1-15.4-24.6 4.1-68.3 10.4-93.5 8-31.9 16.4-63.8 23.8-95.9 6.7-29.2 15.2-78 38.2-99.6 23-21.6 49-15.6 78-12.3 34.7 3.9 70.6 58.6 65.2 97.8z"/>
				<g id="&lt;Group&gt;">
					<g id="&lt;Group&gt;">
						<path id="&lt;Path&gt;" class="s32" d="m1284.8 1786.2l-3.7-0.7-3.7-30.9 9.7-11.4z"/>
						<g id="&lt;Group&gt;">
							<g id="&lt;Group&gt;">
								<path id="&lt;Path&gt;" class="s17" d="m1289.2 1783.7l-4.4 2.5 0.6-50.6 7.9-1.8z"/>
							</g>
							<g id="&lt;Group&gt;">
								<path id="&lt;Path&gt;" class="s18" d="m1255.2 1720l-8.2 27.1c0 0-11.2 26.2-20.4 36.5 0 0-16.7 22.8 14.5 21.2 0 0 33.2-1.7 32.7-23-0.5-18.3 16.3-41.1 16.3-41.1 6.2-10.7 0-19.4-2.1-21.8l-5.8-6.6-27.9-4.9z"/>
								<g id="&lt;Group&gt;">
									<path id="&lt;Path&gt;" class="s17" d="m1224.8 1792c13.7 2.5 27.6-2.6 36.1-11 8.7-8.5 18.5-39.6 15.2-29.2-1.3 4.2 8.8-33.6 6.1-39.5l5.8 6.6c2.1 2.4 8.9 11.7 2.7 22.4 0 0-17.4 22.2-16.9 40.5 0.5 21.3-32.7 23-32.7 23-18.7 1-20.2-6.9-18.4-13.3q1 0.3 2.1 0.5z"/>
								</g>
								<g id="&lt;Group&gt;">
									<path id="&lt;Path&gt;" class="s17" d="m1209.1 1801.1c0 0-4.7 8.8 10.2 8.8 0 0 55.7-3.5 55.7-27.4v-19.3c0 0-4.4 27.5-38.8 27.6 0 0-15.2 0-7.4-9.8z"/>
								</g>
							</g>
						</g>
					</g>
					<g id="&lt;Group&gt;">
						<path id="&lt;Path&gt;" class="s16" d="m1317.9 680.8h-73c3.3-10.6 10.2-38.1-0.4-56.8l73.7-48.5c0 0-13.1 81.3-0.3 105.3z"/>
						<path id="&lt;Path&gt;" class="s28" d="m1309.7 635c-4.4 11.1-11.4 16.6-23 20.2-12.7 4.1-25 4.9-37 2.8 1.1-11.2 0.5-23.9-5.2-34l73.7-48.5c0 0-4 24.8-5.4 51.1-1 2.8-2 5.6-3.1 8.4z"/>
						<path id="&lt;Path&gt;" class="s16" d="m1230.4 640.9l-3.9-11-9.4-32.3c-1.3-5.1-1.9-12.1-0.2-17.2 2.1-6 3.8-15.8 1.5-26.8-6-29.4 7.1-44.7 7.1-44.7 17.1-27 57.6-26.9 57.6-26.9 50.1 2.6 54.1 51.1 54.1 51.1 8.1 32.2-17.6 59-17.7 59-3.2 3.4-3.6 8.9-5.1 13.1-1.7 4.5-4.3 8.7-7.4 12.3-7 8-16.2 15.8-25.7 20.6-8.9 4.5-26.2 9.2-38.5 9.1-5.2-0.1-10.2 0-12.4-6.3z"/>
						<g id="&lt;Group&gt;">
							<path id="&lt;Path&gt;" class="s32" d="m1464.1 1790.4l-3.7 0.5-13.4-28.1 5.4-13.9z"/>
							<g id="&lt;Group&gt;">
								<g id="&lt;Group&gt;">
									<path id="&lt;Path&gt;" class="s17" d="m1467.5 1786.6l-3.4 3.8-15.6-48.2 6.8-4.1z"/>
								</g>
								<g id="&lt;Group&gt;">
									<path id="&lt;Path&gt;" class="s16" d="m1414.8 1737.2c0.8 22.6 2.4 48-6.7 69.4 0 0-8.4 26.9 20.6 15.5 0 0 30.9-12.4 23.5-32.4-6.2-17.2 2.4-44.1 2.4-44.1 2.4-12.1-6.3-18.4-9.1-20l-7.5-4.4h-29z"/>
									<g id="&lt;Group&gt;">
										<path id="&lt;Path&gt;" class="s17" d="m1409.1 1815.1c13.8-2 25.4-11.3 30.7-22 5.5-10.8 4.8-43.4 5.1-32.6 0.1 4.5-2.5-34.6-6.9-39.3l7.5 4.4c2.8 1.6 12.3 8.2 9.8 20.4 0 0-9.3 26.5-3.1 43.7 7.4 20-23.5 32.4-23.5 32.4-17.4 6.8-21.3-0.1-21.7-6.8q1 0 2.1-0.2z"/>
									</g>
									<g id="&lt;Group&gt;">
										<path id="&lt;Path&gt;" class="s17" d="m1397.2 1828.7c0 0-1.6 9.9 12.5 5.2 0 0 51.6-21.2 43.9-43.9l-6.1-18.3c0 0 4.6 27.5-27.9 38.6 0 0-14.5 4.9-10.1-6.9z"/>
									</g>
								</g>
							</g>
						</g>
						<path id="&lt;Path&gt;" class="s16" d="m1382.8 1399.4c37 68.4 43.5 96.2 50.1 148.2 3.9 30.2 2.6 157.6 6.6 176.6 1.6 7.8-28.3 3.5-28.3 3.5-5.5-13.3-92.6-305.9-92.6-305.9 0 0-9.8-30.3-1.7-35.6 40.6-26.4 49.7-16.5 65.9 13.2z"/>
						<path id="&lt;Path&gt;" class="s16" d="m1216.6 905.1c0 0-28.4 120.4-24.6 133.6 11 37.9 118.2 126.2 211.3 48.6 0 0-19.2-135-70.6-199.5 0 0-16.3 16.8-116.1 17.3z"/>
						<path id="&lt;Path&gt;" class="s33" d="m1231.1 660.5c0 0-37.2 71.9-53.8 111.4 6.9 46.3 32.1 115 42.2 129.5 22.1 31.7 123.4 3.4 123.4 3.4l29.2-97.5c-85.2-30.6-40.3-120.4-40.3-120.4l-13.4-8.4c0 0-13.6 44.1-69.1 42.5 0 0-18.2-11.8-4.8-62.2 0 0-8 0.3-13.4 1.7z"/>
						<path id="&lt;Path&gt;" class="s18" d="m1323.8 1071.1c0 0-9.8 194.2-45.7 298.7-5.4 15.6-66.8-5.1-66.8-5.1 0 0-31-167.1-29.1-236.4 1-39.1 15-123.5 15-123.5 0 0 115.2-15.1 126.6 66.3z"/>
						<path id="&lt;Path&gt;" class="s18" d="m1276.3 1369.1l-65-4.4c0 0 39.9 331.6 43.6 345.5 0 0 27.9 10.1 27.3 2.1-1.3-19.4 22-168.2 22.7-198.6 1.1-49-0.8-79.9-28.6-144.6z"/>
						<g id="&lt;Group&gt;">
							<path id="&lt;Path&gt;" class="s18" d="m1254.4 696.4c4.2 23.3-11.3 45.5-34.6 49.7-23.3 4.2-79.5 6.4-70.3-15.4 17.7-42 37.1-63.8 60.4-68 23.3-4.2 40.3 10.4 44.5 33.7z"/>
							<path id="&lt;Path&gt;" class="s18" d="m1234.6 730.4l-19.6-38.5-44.4-0.8c0 0-57.2 105.3-67.9 136.6-11.5 33.4 15.5 20.8 26.8 17.1 0 0 93.7-89.3 105.1-114.4z"/>
							<path id="&lt;Path&gt;" class="s18" d="m1129.5 844.8c0 0-36.6 46.2-61 57.3 0 0-25.1-17.1 32.4-68.5 0 0 21.1-20.5 28.6 11.2z"/>
						</g>
						<path id="&lt;Path&gt;" class="s16" d="m1403.3 1087.3c0 0-0.8 194.4-26.4 301.8-3.8 16.1-62.4 11.1-62.4 11.1 0 0-38.2-183.7-43-252.8-2.8-39.1-10.6-107.4-10.6-107.4 0 0 137.1-13.6 142.4 47.3z"/>
						<path id="&lt;Path&gt;" class="s16" d="m1374.9 710.3c29.9 21.8 14.6 54.7 14.6 54.7l-56.4 137c0 0-91.5 31.1-113.6-0.6-10.1-14.5-19.5-52.9-31.8-108.3-8.3-37.7-8.9-103.4 12.3-122.9 12.2-11.2 51.8-11 52.1-12.4l64.1 20.7z"/>
						<path id="&lt;Path&gt;" class="s16" d="m1254.1 890.8c-5.4-1-34.6 10.6-34.6 10.6 0 0-21.1 89.7-22.3 103.4-1.2 13.6 92.7 84.3 197.6 44.1 0 0-53-124.9-60.7-151.1-8.9-30-80-7-80-7z"/>
						<path id="&lt;Path&gt;" class="s34" d="m1203.2 716c0 0-30.9 36.4-33.5 63.5-1.5 15.1 17.6 40.3 27.1 49.6 6.7 6.6 46.7-88 6.4-113.1z"/>
						<path id="&lt;Path&gt;" class="s31" d="m1313.9 610.8c0.3-22.8-0.3-21.4-0.3-21.4-0.5-6.7-13.6 7.7-13.4-1 1.3-39.8-13.2-58.8-18.9-61.9-15.3-8.3-31.5-10.7-44.4-8.4-20.1 3.6-19.4 30.4-19.4 30.4-17.1-98.2 92.4-66.8 92.4-66.8 53.3 14 47.8 64.3 47.8 64.3 6.5 53.9-44.6 85.1-44.6 85.1z"/>
						<g id="&lt;Group&gt;">
							<g id="&lt;Group&gt;">
								<g id="&lt;Group&gt;">
									<g id="&lt;Group&gt;">
										<g id="&lt;Group&gt;">
											<g id="&lt;Group&gt;">
												<path id="&lt;Path&gt;" class="s20" d="m1310.4 603c1.8 1.4 4.1 2.2 7 2.2 7.7-0.1 14.2-7.4 14.3-16.2 0.2-8.8-5.9-15.9-13.6-15.8-3.7 0.1-7.1 1.7-9.6 4.4-3.8 3.9-3.9 11.1-3 16 0.7 4 2.3 7.4 4.9 9.4z"/>
											</g>
										</g>
									</g>
								</g>
							</g>
							<g id="&lt;Group&gt;">
								<g id="&lt;Group&gt;">
									<g id="&lt;Group&gt;">
										<path id="&lt;Path&gt;" class="s22" d="m1314.9 581.4c0.5-4.6 9.9-0.2 8.4 2.4-0.8 1.5-2.4 2.6-3.7 3.7-1.8 1.4-2.7 2.7-2.9 5 0 0.3-0.1 1.1 0.2 1.3 1.2 0.8 5.2-3.7 6-4.6 1.8-1.9 2-5.1 1.2-7.4-0.9-2.5-2.5-3.7-5.2-3.5-2.1 0.1-4.2 0.3-4.1 2.9 0 0 0.1 0.5 0.1 0.2z"/>
									</g>
								</g>
								<g id="&lt;Group&gt;">
									<g id="&lt;Group&gt;">
										<path id="&lt;Path&gt;" class="s22" d="m1317.9 586.2c-1-0.9-1.9-0.1-2.9 0.6-0.9 0.7-1.4 1.6-1.7 2.7-0.5 2.4-0.2 5.6 1.2 7.7 1.1 1.7 3 2.8 5 2.7 2.9-0.1 3.7-2.6 3.8-4.9 0-0.7 0.1-2.2-0.5-2.6-0.7-0.4-1.2 0.6-1.6 1.1-0.7 0.6-1.6 0.8-2.4 0.9-1.6 0.1-3.2-0.7-4.2-1.9-0.2-0.2-0.4-0.5-0.5-0.7q0 2.3 0.3 1 0.2-0.6 0.5-1.1c0.7-1 1.8-1.8 2.5-2.8 0.4-0.5 1-2.2 0.5-2.7z"/>
									</g>
								</g>
							</g>
						</g>
						<g id="&lt;Group&gt;">
							<path id="&lt;Path&gt;" class="s27" d="m1266 569c-0.2 2.7 1.1 5.1 2.9 5.3 1.9 0.2 3.7-1.9 3.9-4.7 0.3-2.8-1-5.2-2.9-5.3-1.9-0.2-3.6 1.9-3.9 4.7z"/>
							<path id="&lt;Path&gt;" class="s27" d="m1227.5 563.8c-0.1 2.7 1.3 5.1 3.2 5.1 1.9 0.1 3.5-2.1 3.7-4.9 0.1-2.8-1.4-5.1-3.3-5.2-1.9 0-3.5 2.2-3.6 5z"/>
							<path id="&lt;Path&gt;" class="s31" d="m1282.6 565.2c-7.2-7.6-24.3-7-24.3-7 0 0-1.1 0-0.8-3.5 0 0 0.1-3.1 2.6-2.8 0 0 21.6-1.4 22.5 13.3z"/>
							<path id="&lt;Path&gt;" class="s31" d="m1217.5 548.5c8.9-4.3 21.7 0.8 21.7 0.8 2.4 0.4 1.7 3.4 1.7 3.4-0.6 3.4-1.7 3.1-1.7 3.1 0 0-12.1-6-21.1-3.9-0.4-2.3-0.3-2.1-0.6-3.4z"/>
							<g id="&lt;Group&gt;">
								<path id="&lt;Path&gt;" class="s29" d="m1232.4 604.1l27.4 5.1c1.4 0.3 2 1.1 1.2 1.9 0 0-7.8 7.9-16.7 6.2-8.9-1.6-13.4-11.9-13.4-11.9-0.4-0.8 0.3-1.4 1.5-1.3z"/>
							</g>
							<path id="&lt;Path&gt;" class="s22" d="m1252.1 595.5c-14.4-1.1-15.2-4.8-15.2-4.8l7.6-15.2c0 0-1.8 15.2 7.6 20z"/>
						</g>
						<g id="&lt;Group&gt;">
							<g id="&lt;Group&gt;">
								<g id="&lt;Group&gt;">
									<path id="&lt;Path&gt;" class="s35" d="m1049.4 818.8l34.6 140c0 2.5 1.8 3 1.8 3l61.3 25.6c3.1 0.5 2.8-2.5 2.8-2.5l-34.7-139.1c0-3-1.9-3.4-1.9-3.4l-61-25.4c0 0-2.9-1.3-2.9 1.8z"/>
								</g>
								<g id="&lt;Group&gt;">
									<path id="&lt;Path&gt;" class="s36" d="m1154.6 983.7l-5.9 4c1.1-0.3 1.2-2.2 1.2-2.2l-34.7-139.6 5.2-3.5 34.7 140.3c0 0 0.1 0.7-0.5 1z"/>
									<path id="&lt;Path&gt;" class="s36" d="m1113.9 842.7c0 0 1.3 0.7 1.3 3.2l5.2-3.5c0-1.8-0.9-2.8-1.4-3.2z"/>
									<path id="&lt;Path&gt;" class="s37" d="m1119 839.2c-0.2-0.1-0.4-0.2-0.4-0.2l-61.1-25.5c0 0-1.7-1-3.5 0.2l-3.7 2.4c0 0-0.9 0.5-0.8 2 0 0 0.2-2 2.7-1.2l61.7 25.8z"/>
								</g>
								<path id="&lt;Path&gt;" class="s38" d="m1049.4 818.8l34.6 140c0 2.5 1.8 3 1.8 3l61.3 25.6c3.1 0.5 2.8-2.5 2.8-2.5l-34.7-139.1c0-3-1.9-3.4-1.9-3.4l-61-25.4c0 0-2.9-1.3-2.9 1.8z"/>
							</g>
							<path id="&lt;Path&gt;" class="s18" d="m1062.1 870.9c3.3 6 6.8 11.5 12.1 15.6 6 4.8 16 3.4 19.9 6.8 6.7 6.1 1.9 22.4-12.3 38.8-12.3 14.2-21.4-4.4-25.5-15.9-6.2-16.9-5.8-24.4 1.2-38z"/>
						</g>
						<path id="&lt;Path&gt;" class="s29" d="m1310.1 604.7c0 2.6 2.1 4.7 4.7 4.7 2.6 0 4.8-2.1 4.8-4.7 0-2.7-2.2-4.8-4.8-4.8-2.6 0-4.7 2.1-4.7 4.8z"/>
						<path id="&lt;Path&gt;" class="s39" d="m1182.2 1128.3c0.6-23 4-61.7 8.1-89.6 1.3-22 26.3-133.6 26.3-133.6 99.8-0.5 122.3-17.3 122.3-17.3 26.7 45.4 45.1 96.9 55.8 148.4 6 28.9 8.9 55.2 8 84.3-1.2 38.7-2.7 77.3-5.4 115.9-0.5 6.8-4.2 76.2-7.4 76.5 0 0-167.4 17.4-196.5-58.3-6.5-46-12.1-95.7-11.2-126.3z"/>
						<path id="&lt;Path&gt;" class="s34" d="m1342.9 904.8c0 0-104.1 32.1-126.3 0.3-10.1-14.5-32.4-86.9-39.3-133.2 16.6-39.5 53.8-111.4 53.8-111.4 5.4-1.4 13.4-1.7 13.4-1.7-13.4 50.4 4.8 62.2 4.8 62.2 55.5 1.6 69.1-42.5 69.1-42.5l13.4 8.4c0 0-41.4 85.8 38.4 125.1 0 0 1.9 92-27.3 92.8z"/>
						<g id="&lt;Group&gt;">
							<path id="&lt;Path&gt;" class="s16" d="m1326.5 746.6c-3.3 23.4 13.1 45 36.5 48.3 23.4 3.2 85.4-2.8 72.2-22.4-26.1-38.5-42.1-58.1-65.6-61.3-23.4-3.3-39.9 12-43.1 35.4z"/>
							<path id="&lt;Path&gt;" class="s16" d="m1347.6 779.8l18.1-39.3 44.3-2.5c0 0 99 101.7 110.9 132.6 12.7 32.9-14.7 21.4-26.1 18 0 0-134.9-84.2-147.2-108.8z"/>
							<path id="&lt;Path&gt;" class="s16" d="m1522.5 889c0 0-46.2 71.8-94.1 116.1 0 0-21.3-1.4-15-13.2 10.7-20.1 54.6-114.2 65.4-134.4 6.2-11.3 43.7 31.5 43.7 31.5z"/>
							<path id="&lt;Path&gt;" class="s16" d="m1412.8 991.3l-24.1 7.8-11.2-13.5c0.7 15.4-3.9 26.2-3.9 26.2-13.4 15.3-21.4 27.2-21.4 27.2-5.3 5.2 0.9 7.8 0.9 7.8 10.1-3.5 28.9-19.2 28.9-19.2-9.3 10.3-27.2 25.3-27.2 25.3-3.5 5 2.8 6.3 2.8 6.3 14.7-0.9 30.9-23.4 30.9-23.4-5.9 8.7-22.9 24-22.9 24-0.6 4.4 1.9 4 1.9 4 11.7 1.1 27.3-20.5 27.3-20.5l-6.1 7.9c-9.2 10.2-0.3 10.9-0.3 10.9l5.6-4.6c17-14.2 23.1-31.7 23.1-31.7l10.8-21.3z"/>
						</g>
					</g>
				</g>
				<path id="&lt;Path&gt;" class="s31" d="m1243.7 509.5c33.1 18.2 51.7 34.8 43.1 75.1-7.7 36.3-10.4 56.1 9.7 88.5 18.7 30.4 20.4 47.8 4.2 80.4-12.9 26.2-25.7 51.3 6.8 67 61.5 29.7 118.6-19 95.6-85.5-10.4-29.9-35.5-50.2-47.4-78.8-12.1-29.1-0.4-53.8 2.1-83.2 4.4-49.1-62.7-120.4-104.9-72.8-3.5 4-6.5 9-9.2 13.6z"/>
			</g>
		</g>
	</g>
</svg>